<svg id="svg" version="1.1" width="400" height="400" viewBox="0 0 400 400" xmlns="http://www.w3.org/2000/svg" xmlns:xlink="http://www.w3.org/1999/xlink" ><g id="svgg"><path id="path0" d="M248.546 93.409 C 235.965 95.711,228.062 104.802,225.949 119.400 C 224.608 128.660,225.394 151.659,227.275 158.200 C 235.202 185.776,278.666 185.014,284.351 157.200 C 285.430 151.920,285.600 149.756,285.600 141.327 L 285.600 132.400 271.643 132.400 C 259.285 132.400,257.658 132.472,257.443 133.033 C 256.945 134.330,257.178 141.884,257.730 142.342 C 258.063 142.618,261.072 142.822,265.830 142.891 L 273.400 143.000 273.398 147.200 C 273.390 159.912,266.919 167.215,255.680 167.195 C 247.514 167.181,241.640 163.054,239.235 155.642 C 236.960 148.629,236.964 122.839,239.242 115.600 C 243.915 100.746,262.547 98.462,271.059 111.700 C 273.089 114.858,272.834 114.807,277.422 112.958 C 284.156 110.244,284.037 110.441,281.504 106.224 C 275.272 95.851,262.449 90.864,248.546 93.409 M116.000 143.977 L 94.600 144.200 94.483 147.301 C 94.344 151.000,93.966 150.726,100.974 152.020 C 109.266 153.553,111.148 155.003,113.147 161.400 C 113.901 163.814,114.357 271.542,113.637 277.400 C 112.473 286.888,110.115 289.046,98.823 290.962 C 94.406 291.711,94.363 291.755,94.497 295.375 L 94.600 298.149 125.100 298.175 L 155.600 298.200 155.600 294.939 L 155.600 291.679 153.100 291.414 C 151.725 291.268,149.610 290.990,148.400 290.795 C 147.190 290.601,144.781 290.223,143.047 289.955 C 133.481 288.479,132.819 286.043,132.808 252.237 L 132.800 228.673 142.297 228.948 C 152.496 229.243,152.146 229.161,153.515 231.600 C 156.201 236.386,160.361 243.412,163.580 248.600 C 165.627 251.900,167.860 255.500,168.541 256.600 C 175.608 268.007,187.259 283.728,192.492 288.919 C 200.910 297.268,214.104 301.694,226.578 300.353 C 233.287 299.631,234.000 299.194,234.000 295.800 C 234.000 292.891,233.762 292.607,231.000 292.221 C 219.793 290.654,207.983 279.760,189.781 254.200 C 181.514 242.592,171.897 227.169,172.531 226.536 C 172.635 226.432,174.313 225.805,176.260 225.144 C 212.836 212.717,217.958 161.817,184.000 148.222 C 172.386 143.572,169.896 143.417,116.000 143.977 M161.600 154.967 C 177.346 157.859,186.399 168.823,186.397 185.000 C 186.396 203.607,174.573 216.072,155.109 217.989 C 150.623 218.431,134.130 217.975,133.171 217.382 C 132.381 216.894,132.706 154.883,133.500 154.676 C 135.332 154.197,158.728 154.439,161.600 154.967 " stroke="none" fill="#fbfbfb" fill-rule="evenodd"></path><path id="path1" d="M0.000 200.000 L 0.000 400.000 200.000 400.000 L 400.000 400.000 400.000 200.000 L 400.000 0.000 200.000 0.000 L 0.000 0.000 0.000 200.000 M261.600 92.392 C 268.262 93.357,273.144 95.847,278.003 100.760 C 282.849 105.658,285.095 110.194,283.200 111.254 C 280.871 112.556,274.169 115.200,273.199 115.200 C 272.674 115.200,271.724 114.131,270.226 111.857 C 264.702 103.469,254.379 101.350,246.283 106.940 C 242.363 109.646,240.421 112.979,239.137 119.200 C 238.399 122.772,238.397 148.743,239.134 152.200 C 241.207 161.926,246.284 166.180,255.800 166.163 C 266.758 166.143,271.899 160.576,272.661 147.900 L 272.920 143.600 265.288 143.600 C 255.824 143.600,256.400 143.980,256.400 137.745 C 256.400 130.925,254.763 131.599,271.314 131.606 C 279.061 131.609,285.646 131.768,285.947 131.959 C 286.727 132.453,286.315 152.724,285.454 156.200 C 283.949 162.281,281.874 166.450,278.627 169.921 C 274.488 174.346,270.781 176.422,263.400 178.450 C 260.044 179.373,250.123 179.136,246.200 178.040 C 228.295 173.038,222.367 157.941,224.823 123.600 C 226.449 100.850,240.088 89.277,261.600 92.392 M169.200 143.342 C 188.177 146.288,200.895 155.619,205.780 170.177 C 208.829 179.265,208.228 191.500,204.317 200.000 C 203.861 200.990,203.255 202.340,202.971 203.000 C 199.095 211.979,186.841 222.494,176.160 226.007 L 173.320 226.941 174.922 229.770 C 184.181 246.132,201.667 270.056,211.806 280.234 C 218.346 286.799,227.104 291.600,232.540 291.600 C 234.478 291.600,234.800 292.179,234.800 295.671 C 234.800 298.526,234.720 298.834,233.825 299.420 C 229.402 302.319,213.739 301.743,205.800 298.390 C 205.360 298.204,204.152 297.693,203.115 297.255 C 196.122 294.299,188.654 286.977,179.601 274.200 C 178.198 272.220,176.618 270.006,176.090 269.281 C 174.102 266.549,169.252 259.246,166.674 255.100 C 158.370 241.748,157.944 241.037,153.412 232.951 L 151.825 230.118 145.612 229.860 C 142.196 229.719,138.085 229.602,136.478 229.601 L 133.556 229.600 133.716 254.500 C 133.847 274.684,133.986 279.741,134.451 281.200 C 136.388 287.279,138.100 288.523,146.000 289.594 C 152.567 290.484,155.405 290.897,155.900 291.035 C 156.599 291.231,156.599 298.537,155.900 299.115 C 155.557 299.399,152.885 299.403,147.400 299.130 C 141.046 298.813,114.609 298.866,96.927 299.230 C 93.601 299.299,93.600 299.297,93.600 295.225 C 93.600 290.947,93.332 291.187,99.400 290.040 C 107.677 288.475,109.329 287.657,110.953 284.320 C 113.237 279.626,113.200 280.673,113.199 221.400 C 113.199 157.723,113.311 159.478,108.996 155.680 C 107.167 154.070,106.367 153.807,99.009 152.392 C 93.480 151.328,93.599 151.437,93.606 147.451 C 93.613 143.795,93.781 143.339,95.200 143.140 C 97.390 142.833,167.146 143.023,169.200 143.342 M134.298 155.455 C 133.634 155.648,133.601 157.363,133.698 186.125 L 133.800 216.590 135.800 216.896 C 139.330 217.436,155.968 217.398,158.600 216.843 C 176.436 213.085,185.375 202.521,185.375 185.200 C 185.375 169.457,178.771 160.556,163.800 156.120 C 161.810 155.530,136.031 154.949,134.298 155.455 " stroke="none" fill="#04ccbc" fill-rule="evenodd"></path><path id="path2" d="M254.900 92.276 C 255.285 92.376,255.915 92.376,256.300 92.276 C 256.685 92.175,256.370 92.093,255.600 92.093 C 254.830 92.093,254.515 92.175,254.900 92.276 M251.905 92.683 C 252.402 92.779,253.122 92.775,253.505 92.675 C 253.887 92.575,253.480 92.496,252.600 92.501 C 251.720 92.505,251.407 92.587,251.905 92.683 M233.787 100.500 L 231.400 103.000 233.900 100.613 C 235.275 99.299,236.400 98.174,236.400 98.113 C 236.400 97.817,236.005 98.178,233.787 100.500 M277.600 100.600 C 278.346 101.370,279.047 102.000,279.157 102.000 C 279.267 102.000,278.746 101.370,278.000 100.600 C 277.254 99.830,276.553 99.200,276.443 99.200 C 276.333 99.200,276.854 99.830,277.600 100.600 M254.700 103.482 C 255.195 103.578,256.005 103.578,256.500 103.482 C 256.995 103.387,256.590 103.309,255.600 103.309 C 254.610 103.309,254.205 103.387,254.700 103.482 M267.583 108.100 C 268.564 109.145,269.419 110.000,269.483 110.000 C 269.784 110.000,269.466 109.641,267.700 107.983 L 265.800 106.200 267.583 108.100 M243.578 108.700 L 242.200 110.200 243.700 108.822 C 245.096 107.538,245.384 107.200,245.078 107.200 C 245.012 107.200,244.337 107.875,243.578 108.700 M225.293 121.600 C 225.293 122.370,225.375 122.685,225.476 122.300 C 225.576 121.915,225.576 121.285,225.476 120.900 C 225.375 120.515,225.293 120.830,225.293 121.600 M224.924 125.400 C 224.926 126.720,225.001 127.212,225.090 126.493 C 225.179 125.774,225.177 124.694,225.086 124.093 C 224.995 123.492,224.922 124.080,224.924 125.400 M238.142 128.600 C 238.141 130.580,238.208 131.440,238.292 130.512 C 238.376 129.584,238.377 127.964,238.295 126.912 C 238.212 125.860,238.143 126.620,238.142 128.600 M286.169 140.800 C 286.169 145.310,286.227 147.155,286.298 144.900 C 286.370 142.645,286.370 138.955,286.298 136.700 C 286.227 134.445,286.169 136.290,286.169 140.800 M237.720 136.400 C 237.720 137.610,237.795 138.105,237.887 137.500 C 237.978 136.895,237.978 135.905,237.887 135.300 C 237.795 134.695,237.720 135.190,237.720 136.400 M238.142 142.600 C 238.141 144.580,238.208 145.440,238.292 144.512 C 238.376 143.584,238.377 141.964,238.295 140.912 C 238.212 139.860,238.143 140.620,238.142 142.600 M95.105 143.483 C 95.602 143.579,96.322 143.575,96.705 143.475 C 97.087 143.375,96.680 143.296,95.800 143.301 C 94.920 143.305,94.607 143.387,95.105 143.483 M131.900 143.493 C 132.835 143.577,134.365 143.577,135.300 143.493 C 136.235 143.409,135.470 143.340,133.600 143.340 C 131.730 143.340,130.965 143.409,131.900 143.493 M105.673 143.899 C 110.004 143.964,117.204 143.964,121.673 143.900 C 126.143 143.835,122.600 143.782,113.800 143.782 C 105.000 143.782,101.343 143.835,105.673 143.899 M94.134 146.800 C 94.134 148.450,94.205 149.125,94.291 148.300 C 94.378 147.475,94.378 146.125,94.291 145.300 C 94.205 144.475,94.134 145.150,94.134 146.800 M224.920 146.000 C 224.920 147.210,224.995 147.705,225.087 147.100 C 225.178 146.495,225.178 145.505,225.087 144.900 C 224.995 144.295,224.920 144.790,224.920 146.000 M273.293 145.200 C 273.293 145.970,273.375 146.285,273.476 145.900 C 273.576 145.515,273.576 144.885,273.476 144.500 C 273.375 144.115,273.293 144.430,273.293 145.200 M272.909 148.800 C 272.909 149.790,272.987 150.195,273.082 149.700 C 273.178 149.205,273.178 148.395,273.082 147.900 C 272.987 147.405,272.909 147.810,272.909 148.800 M225.293 149.600 C 225.293 150.370,225.375 150.685,225.476 150.300 C 225.576 149.915,225.576 149.285,225.476 148.900 C 225.375 148.515,225.293 148.830,225.293 149.600 M142.478 154.698 C 144.831 154.769,148.791 154.769,151.278 154.699 C 153.765 154.629,151.840 154.571,147.000 154.570 C 142.160 154.570,140.125 154.628,142.478 154.698 M135.100 155.082 C 135.595 155.178,136.405 155.178,136.900 155.082 C 137.395 154.987,136.990 154.909,136.000 154.909 C 135.010 154.909,134.605 154.987,135.100 155.082 M132.984 155.700 C 132.879 155.975,132.840 169.790,132.897 186.400 L 133.000 216.600 133.200 185.900 C 133.310 169.015,133.349 155.200,133.287 155.200 C 133.226 155.200,133.089 155.425,132.984 155.700 M233.800 170.800 C 234.883 171.900,235.860 172.800,235.970 172.800 C 236.080 172.800,235.283 171.900,234.200 170.800 C 233.117 169.700,232.140 168.800,232.030 168.800 C 231.920 168.800,232.717 169.700,233.800 170.800 M253.500 178.695 C 254.655 178.776,256.545 178.776,257.700 178.695 C 258.855 178.614,257.910 178.548,255.600 178.548 C 253.290 178.548,252.345 178.614,253.500 178.695 M185.744 185.200 C 185.744 187.290,185.812 188.145,185.894 187.100 C 185.976 186.055,185.976 184.345,185.894 183.300 C 185.812 182.255,185.744 183.110,185.744 185.200 M207.293 184.000 C 207.293 184.770,207.375 185.085,207.476 184.700 C 207.576 184.315,207.576 183.685,207.476 183.300 C 207.375 182.915,207.293 183.230,207.293 184.000 M176.786 208.300 L 174.600 210.600 176.900 208.414 C 178.165 207.211,179.200 206.176,179.200 206.114 C 179.200 205.817,178.818 206.163,176.786 208.300 M147.911 217.893 C 148.851 217.978,150.291 217.977,151.111 217.891 C 151.930 217.805,151.160 217.736,149.400 217.737 C 147.640 217.739,146.970 217.809,147.911 217.893 M132.984 229.300 C 132.878 229.575,132.840 239.610,132.900 251.600 L 133.007 273.400 133.104 251.323 L 133.200 229.246 134.900 229.093 L 136.600 228.940 134.887 228.870 C 133.830 228.827,133.102 228.991,132.984 229.300 M138.700 229.495 C 139.855 229.576,141.745 229.576,142.900 229.495 C 144.055 229.414,143.110 229.348,140.800 229.348 C 138.490 229.348,137.545 229.414,138.700 229.495 M133.309 275.200 C 133.309 276.190,133.387 276.595,133.482 276.100 C 133.578 275.605,133.578 274.795,133.482 274.300 C 133.387 273.805,133.309 274.210,133.309 275.200 M211.400 280.400 C 213.371 282.380,215.073 284.000,215.183 284.000 C 215.293 284.000,213.771 282.380,211.800 280.400 C 209.829 278.420,208.127 276.800,208.017 276.800 C 207.907 276.800,209.429 278.420,211.400 280.400 M191.600 289.000 C 192.346 289.770,193.047 290.400,193.157 290.400 C 193.267 290.400,192.746 289.770,192.000 289.000 C 191.254 288.230,190.553 287.600,190.443 287.600 C 190.333 287.600,190.854 288.230,191.600 289.000 M94.064 295.076 C 94.029 297.098,94.135 298.837,94.300 298.939 C 94.465 299.042,94.550 297.928,94.490 296.463 C 94.297 291.823,94.130 291.279,94.064 295.076 M102.100 298.691 C 102.925 298.778,104.275 298.778,105.100 298.691 C 105.925 298.605,105.250 298.534,103.600 298.534 C 101.950 298.534,101.275 298.605,102.100 298.691 M144.711 298.693 C 145.651 298.778,147.091 298.777,147.911 298.691 C 148.730 298.605,147.960 298.536,146.200 298.537 C 144.440 298.539,143.770 298.609,144.711 298.693 M96.300 299.089 C 97.015 299.178,98.185 299.178,98.900 299.089 C 99.615 299.001,99.030 298.928,97.600 298.928 C 96.170 298.928,95.585 299.001,96.300 299.089 M151.091 299.089 C 151.801 299.177,153.061 299.179,153.891 299.092 C 154.721 299.005,154.140 298.933,152.600 298.931 C 151.060 298.929,150.381 299.000,151.091 299.089 M222.100 301.076 C 222.485 301.176,223.115 301.176,223.500 301.076 C 223.885 300.975,223.570 300.893,222.800 300.893 C 222.030 300.893,221.715 300.975,222.100 301.076 " stroke="none" fill="#54ddd0" fill-rule="evenodd"></path><path id="path3" d="M254.900 92.687 C 255.505 92.778,256.495 92.778,257.100 92.687 C 257.705 92.595,257.210 92.520,256.000 92.520 C 254.790 92.520,254.295 92.595,254.900 92.687 M247.800 93.220 C 247.261 93.465,247.654 93.505,249.000 93.341 C 250.100 93.207,251.075 93.031,251.167 92.949 C 251.517 92.636,248.561 92.874,247.800 93.220 M261.400 93.200 C 262.060 93.368,263.050 93.509,263.600 93.513 L 264.600 93.520 263.600 93.200 C 263.050 93.024,262.060 92.883,261.400 92.887 L 260.200 92.895 261.400 93.200 M265.400 94.000 C 266.596 94.514,267.595 94.514,266.800 94.000 C 266.470 93.787,265.840 93.622,265.400 93.634 L 264.600 93.656 265.400 94.000 M240.400 95.688 C 236.690 97.484,231.021 103.199,229.242 106.937 C 227.452 110.699,227.857 110.653,229.783 106.875 C 232.015 102.498,236.287 98.286,240.746 96.066 C 242.587 95.150,243.847 94.407,243.546 94.415 C 243.246 94.423,241.830 94.996,240.400 95.688 M270.972 96.309 C 275.277 98.588,279.050 102.139,281.504 106.224 C 283.580 109.680,283.599 110.159,281.700 111.214 C 280.875 111.672,280.560 111.926,281.000 111.778 C 281.440 111.630,282.117 111.418,282.504 111.307 C 286.494 110.160,277.691 98.844,270.114 95.378 C 266.689 93.811,267.105 94.263,270.972 96.309 M251.000 103.600 L 250.200 103.944 251.000 103.925 C 251.440 103.914,252.340 103.768,253.000 103.600 L 254.200 103.295 253.000 103.275 C 252.340 103.265,251.440 103.411,251.000 103.600 M258.200 103.600 C 259.997 104.057,261.664 104.057,260.600 103.600 C 260.160 103.411,259.170 103.265,258.400 103.275 L 257.000 103.295 258.200 103.600 M246.962 105.535 C 243.600 107.719,239.339 112.672,240.136 113.470 C 240.244 113.577,240.653 112.975,241.046 112.132 C 241.998 110.093,245.777 106.426,248.118 105.272 C 249.153 104.762,250.000 104.267,250.000 104.172 C 250.000 103.734,249.141 104.119,246.962 105.535 M263.874 105.245 C 266.153 106.365,268.703 108.653,270.513 111.200 L 271.223 112.200 270.757 111.225 C 269.538 108.672,263.841 103.984,262.000 104.019 C 261.670 104.025,262.513 104.577,263.874 105.245 M227.467 110.667 C 227.320 110.813,227.211 111.308,227.225 111.767 C 227.249 112.533,227.282 112.523,227.634 111.642 C 228.026 110.663,227.944 110.189,227.467 110.667 M271.202 112.625 C 271.199 113.259,272.749 114.800,273.390 114.800 C 274.169 114.800,276.150 114.017,275.929 113.796 C 275.829 113.696,275.157 113.836,274.437 114.107 C 273.198 114.573,273.073 114.534,272.165 113.400 C 271.636 112.740,271.203 112.391,271.202 112.625 M226.673 113.353 C 226.523 113.745,226.411 114.366,226.425 114.733 C 226.442 115.175,226.581 115.074,226.837 114.434 C 227.049 113.903,227.161 113.282,227.085 113.054 C 227.009 112.827,226.824 112.961,226.673 113.353 M225.869 117.156 C 225.721 117.895,225.621 119.063,225.647 119.750 C 225.679 120.612,225.805 120.325,226.055 118.823 C 226.453 116.421,226.297 115.017,225.869 117.156 M238.578 117.778 C 238.427 118.581,238.394 119.327,238.504 119.437 C 238.614 119.547,238.827 118.981,238.978 118.178 C 239.128 117.375,239.162 116.628,239.052 116.518 C 238.942 116.408,238.728 116.975,238.578 117.778 M237.891 123.600 C 237.733 125.470,237.630 128.350,237.661 130.000 C 237.702 132.224,237.806 131.552,238.063 127.400 C 238.453 121.099,238.330 118.380,237.891 123.600 M225.060 126.461 C 224.746 130.889,224.797 142.407,225.147 146.000 C 225.286 147.430,225.400 142.795,225.400 135.700 C 225.400 128.605,225.382 122.800,225.360 122.800 C 225.338 122.800,225.203 124.448,225.060 126.461 M257.285 132.475 C 256.618 133.142,256.614 142.054,257.280 142.720 C 257.620 143.060,260.001 143.200,265.447 143.200 C 270.297 143.200,273.208 143.351,273.337 143.610 C 273.449 143.835,273.494 143.791,273.437 143.510 C 273.359 143.123,271.515 142.974,265.797 142.891 C 261.064 142.822,258.063 142.618,257.730 142.342 C 257.178 141.884,256.945 134.330,257.443 133.033 C 257.658 132.472,259.284 132.400,271.635 132.400 L 285.584 132.400 285.704 140.800 L 285.824 149.201 285.812 140.700 L 285.800 132.200 271.785 132.095 C 261.219 132.016,257.651 132.109,257.285 132.475 M237.650 142.033 C 237.677 144.105,237.836 147.060,238.002 148.600 C 238.186 150.308,238.225 148.903,238.100 145.000 C 237.876 138.012,237.570 135.995,237.650 142.033 M133.200 143.577 C 131.110 143.699,138.193 143.800,148.939 143.800 C 159.685 143.800,167.785 143.675,166.939 143.523 C 165.160 143.203,138.845 143.245,133.200 143.577 M94.400 143.920 C 94.400 144.096,95.075 144.172,95.900 144.091 C 98.222 143.861,98.391 143.666,96.300 143.632 C 95.255 143.614,94.400 143.744,94.400 143.920 M170.400 144.400 C 170.950 144.576,171.850 144.720,172.400 144.720 L 173.400 144.720 172.400 144.400 C 171.850 144.224,170.950 144.080,170.400 144.080 L 169.400 144.080 170.400 144.400 M174.400 145.200 C 175.942 145.694,176.764 145.694,176.000 145.200 C 175.670 144.987,174.950 144.827,174.400 144.846 L 173.400 144.880 174.400 145.200 M177.600 146.000 C 177.930 146.213,178.470 146.388,178.800 146.388 C 179.333 146.388,179.333 146.345,178.800 146.000 C 178.470 145.787,177.930 145.612,177.600 145.612 C 177.067 145.612,177.067 145.655,177.600 146.000 M273.080 149.366 C 272.926 151.108,272.873 152.607,272.964 152.698 C 273.211 152.944,273.706 147.836,273.521 146.958 C 273.433 146.541,273.235 147.625,273.080 149.366 M186.000 148.937 C 186.000 149.013,187.305 149.846,188.900 150.789 C 190.495 151.732,192.565 153.123,193.500 153.879 C 194.435 154.635,195.194 155.107,195.188 154.927 C 195.158 154.132,186.000 148.162,186.000 148.937 M225.628 151.833 C 225.644 152.695,225.817 153.760,226.014 154.200 C 226.248 154.722,226.288 154.237,226.132 152.800 C 225.843 150.158,225.589 149.670,225.628 151.833 M97.000 151.600 C 97.440 151.789,98.340 151.935,99.000 151.925 L 100.200 151.905 99.000 151.600 C 98.340 151.432,97.440 151.286,97.000 151.275 L 96.200 151.256 97.000 151.600 M285.046 153.147 C 284.889 154.327,284.846 155.379,284.950 155.483 C 285.217 155.750,285.722 152.164,285.507 151.525 C 285.411 151.236,285.203 151.966,285.046 153.147 M238.468 152.400 C 238.462 152.950,238.611 153.760,238.800 154.200 L 239.144 155.000 239.132 154.200 C 239.126 153.760,238.976 152.950,238.800 152.400 L 238.480 151.400 238.468 152.400 M101.200 152.400 C 101.750 152.576,102.650 152.720,103.200 152.720 L 104.200 152.720 103.200 152.400 C 102.650 152.224,101.750 152.080,101.200 152.080 L 100.200 152.080 101.200 152.400 M105.200 153.200 C 105.530 153.413,106.070 153.588,106.400 153.588 C 106.933 153.588,106.933 153.545,106.400 153.200 C 106.070 152.987,105.530 152.812,105.200 152.812 C 104.667 152.812,104.667 152.855,105.200 153.200 M272.229 154.229 C 272.081 154.815,272.038 155.372,272.132 155.466 C 272.227 155.560,272.424 155.158,272.571 154.571 C 272.719 153.985,272.762 153.428,272.668 153.334 C 272.573 153.240,272.376 153.642,272.229 154.229 M107.980 154.321 C 109.196 155.163,110.383 156.339,111.309 157.620 C 112.013 158.593,112.014 158.591,111.417 157.336 C 110.804 156.045,108.147 153.583,107.409 153.621 C 107.184 153.633,107.441 153.948,107.980 154.321 M133.500 154.676 C 133.115 154.776,132.800 155.036,132.800 155.253 C 132.800 155.470,133.012 155.516,133.271 155.356 C 133.530 155.196,134.835 154.940,136.171 154.787 L 138.600 154.509 136.400 154.501 C 135.190 154.497,133.885 154.575,133.500 154.676 M158.200 154.800 C 158.860 154.968,159.940 155.105,160.600 155.105 L 161.800 155.105 160.600 154.800 C 159.940 154.632,158.860 154.495,158.200 154.495 L 157.000 154.495 158.200 154.800 M163.200 155.600 C 164.742 156.094,165.564 156.094,164.800 155.600 C 164.470 155.387,163.750 155.227,163.200 155.246 L 162.200 155.280 163.200 155.600 M198.164 158.200 C 199.679 160.021,201.681 163.096,202.812 165.336 C 203.906 167.501,204.798 169.031,204.795 168.736 C 204.777 166.887,200.566 160.224,197.252 156.804 C 196.276 155.798,196.680 156.415,198.164 158.200 M239.212 155.600 C 239.212 155.930,239.387 156.470,239.600 156.800 C 239.945 157.333,239.988 157.333,239.988 156.800 C 239.988 156.470,239.813 155.930,239.600 155.600 C 239.255 155.067,239.212 155.067,239.212 155.600 M167.400 156.771 C 168.280 157.194,169.270 157.539,169.600 157.538 C 170.284 157.534,168.305 156.625,166.800 156.250 C 166.250 156.114,166.520 156.348,167.400 156.771 M226.434 156.600 C 226.422 157.040,226.587 157.670,226.800 158.000 C 227.314 158.795,227.314 157.796,226.800 156.600 L 226.456 155.800 226.434 156.600 M271.400 156.800 C 271.250 157.273,271.217 157.750,271.327 157.860 C 271.437 157.970,271.650 157.673,271.800 157.200 C 271.950 156.727,271.983 156.250,271.873 156.140 C 271.763 156.030,271.550 156.327,271.400 156.800 M284.200 157.600 C 284.048 158.291,284.014 158.947,284.124 159.057 C 284.234 159.167,284.448 158.691,284.600 158.000 C 284.752 157.309,284.786 156.653,284.676 156.543 C 284.566 156.433,284.352 156.909,284.200 157.600 M170.400 157.765 C 170.400 157.885,171.093 158.337,171.940 158.769 C 172.787 159.201,174.362 160.219,175.440 161.031 C 177.109 162.287,177.239 162.335,176.319 161.353 C 175.298 160.265,170.400 157.295,170.400 157.765 M240.000 157.922 C 240.000 158.718,242.425 161.950,243.839 163.038 C 246.072 164.756,247.638 165.696,247.873 165.460 C 247.986 165.348,247.385 164.901,246.539 164.468 C 244.537 163.443,241.894 160.828,241.039 159.026 C 240.389 157.655,240.000 157.242,240.000 157.922 M269.754 160.153 C 268.532 162.032,266.039 164.240,264.445 164.854 C 263.919 165.057,263.604 165.337,263.744 165.478 C 264.222 165.955,268.401 162.706,269.851 160.730 C 270.646 159.648,271.209 158.676,271.103 158.569 C 270.997 158.463,270.390 159.176,269.754 160.153 M112.012 159.200 C 112.012 159.530,112.187 160.070,112.400 160.400 C 112.745 160.933,112.788 160.933,112.788 160.400 C 112.788 160.070,112.613 159.530,112.400 159.200 C 112.055 158.667,112.012 158.667,112.012 159.200 M112.887 162.000 C 112.891 162.550,113.032 163.540,113.200 164.200 L 113.505 165.400 113.513 164.200 C 113.517 163.540,113.376 162.550,113.200 162.000 L 112.880 161.000 112.887 162.000 M228.012 161.325 C 227.925 163.620,236.608 174.454,238.475 174.379 C 238.764 174.367,238.550 174.065,238.000 173.706 C 235.485 172.066,231.319 167.294,229.700 164.200 C 228.778 162.440,228.019 161.146,228.012 161.325 M281.525 164.472 C 280.714 166.039,280.288 167.069,280.578 166.760 C 281.365 165.925,283.254 162.359,283.118 161.966 C 283.053 161.778,282.336 162.906,281.525 164.472 M177.600 162.593 C 177.600 162.725,177.978 163.231,178.440 163.717 C 179.733 165.077,182.390 169.079,183.053 170.664 C 183.379 171.446,183.738 171.995,183.850 171.883 C 184.189 171.544,182.198 167.943,180.211 165.299 C 178.425 162.924,177.600 162.068,177.600 162.593 M248.800 166.000 C 249.130 166.213,249.670 166.388,250.000 166.388 C 250.533 166.388,250.533 166.345,250.000 166.000 C 249.670 165.787,249.130 165.612,248.800 165.612 C 248.267 165.612,248.267 165.655,248.800 166.000 M261.600 166.000 C 261.067 166.345,261.067 166.388,261.600 166.388 C 261.930 166.388,262.470 166.213,262.800 166.000 C 263.333 165.655,263.333 165.612,262.800 165.612 C 262.470 165.612,261.930 165.787,261.600 166.000 M113.794 221.200 C 113.794 251.450,113.842 263.825,113.900 248.700 C 113.958 233.575,113.958 208.825,113.900 193.700 C 113.842 178.575,113.794 190.950,113.794 221.200 M251.600 166.779 C 252.586 167.116,255.890 167.341,255.567 167.050 C 255.475 166.968,254.320 166.796,253.000 166.669 C 251.445 166.520,250.952 166.558,251.600 166.779 M257.600 166.800 L 256.200 167.095 257.600 167.119 C 258.370 167.133,259.360 166.989,259.800 166.800 L 260.600 166.456 259.800 166.481 C 259.360 166.494,258.370 166.638,257.600 166.800 M277.686 169.810 C 276.523 171.018,274.855 172.482,273.978 173.062 C 273.101 173.642,272.473 174.206,272.582 174.315 C 272.917 174.651,277.073 171.238,278.604 169.369 C 280.539 167.007,280.247 167.148,277.686 169.810 M204.828 169.876 C 204.918 170.915,205.544 171.796,205.572 170.924 C 205.587 170.442,205.420 169.936,205.200 169.800 C 204.980 169.664,204.813 169.698,204.828 169.876 M205.668 172.400 C 205.688 173.439,206.318 175.146,206.332 174.200 C 206.338 173.760,206.189 173.040,206.000 172.600 C 205.789 172.110,205.661 172.032,205.668 172.400 M239.200 174.596 C 239.200 174.870,241.649 176.084,241.832 175.901 C 241.919 175.814,241.362 175.444,240.595 175.078 C 239.828 174.712,239.200 174.495,239.200 174.596 M184.880 175.400 C 184.880 175.840,185.024 176.650,185.200 177.200 C 185.454 177.992,185.520 178.033,185.520 177.400 C 185.520 176.960,185.376 176.150,185.200 175.600 C 184.946 174.808,184.880 174.767,184.880 175.400 M206.702 179.000 C 206.817 180.980,206.976 182.675,207.055 182.767 C 207.338 183.093,207.115 177.383,206.806 176.400 C 206.634 175.850,206.587 177.020,206.702 179.000 M266.200 176.800 C 265.100 177.206,264.560 177.539,265.000 177.539 C 265.440 177.540,266.520 177.207,267.400 176.800 C 269.456 175.848,268.779 175.848,266.200 176.800 M244.800 177.200 C 245.130 177.413,245.760 177.578,246.200 177.566 L 247.000 177.544 246.200 177.200 C 245.004 176.686,244.005 176.686,244.800 177.200 M248.000 178.000 C 248.550 178.176,249.630 178.317,250.400 178.314 L 251.800 178.308 250.200 177.977 C 248.063 177.535,246.596 177.550,248.000 178.000 M260.800 178.000 L 259.400 178.295 260.800 178.319 C 261.570 178.333,262.560 178.189,263.000 178.000 L 263.800 177.656 263.000 177.681 C 262.560 177.694,261.570 177.838,260.800 178.000 M185.800 185.242 C 185.800 189.026,185.914 191.039,186.070 190.000 C 186.424 187.645,186.428 182.215,186.077 180.242 C 185.922 179.371,185.800 181.578,185.800 185.242 M206.872 186.850 C 206.832 187.868,206.711 189.308,206.601 190.050 L 206.403 191.400 206.822 190.065 C 207.052 189.331,207.174 187.891,207.093 186.865 L 206.944 185.000 206.872 186.850 M205.829 193.029 C 205.681 193.615,205.651 194.184,205.761 194.294 C 205.871 194.404,206.081 194.015,206.229 193.429 C 206.376 192.842,206.406 192.273,206.296 192.163 C 206.186 192.053,205.976 192.442,205.829 193.029 M185.000 193.600 C 184.848 194.291,184.814 194.947,184.924 195.057 C 185.034 195.167,185.248 194.691,185.400 194.000 C 185.552 193.309,185.586 192.653,185.476 192.543 C 185.366 192.433,185.152 192.909,185.000 193.600 M205.029 195.829 C 204.881 196.415,204.851 196.984,204.961 197.094 C 205.071 197.204,205.281 196.815,205.429 196.229 C 205.576 195.642,205.606 195.073,205.496 194.963 C 205.386 194.853,205.176 195.242,205.029 195.829 M184.063 197.000 C 182.554 202.419,177.562 208.862,172.418 212.027 C 171.286 212.723,170.445 213.378,170.549 213.482 C 171.366 214.299,179.128 207.134,181.517 203.358 C 183.043 200.947,184.909 196.513,184.674 195.859 C 184.583 195.607,184.308 196.120,184.063 197.000 M199.572 207.089 C 197.268 210.571,191.709 216.396,188.518 218.673 C 185.366 220.923,185.201 221.373,188.300 219.267 C 190.860 217.528,194.948 213.649,197.433 210.600 C 199.541 208.013,201.723 204.790,201.511 204.578 C 201.419 204.486,200.547 205.616,199.572 207.089 M168.493 214.180 C 167.032 214.987,166.962 215.242,168.330 214.764 C 169.029 214.521,169.702 214.159,169.824 213.961 C 170.121 213.481,169.604 213.566,168.493 214.180 M162.600 216.400 C 162.096 216.617,162.022 216.744,162.400 216.744 C 162.730 216.744,163.360 216.589,163.800 216.400 C 164.304 216.183,164.378 216.056,164.000 216.056 C 163.670 216.056,163.040 216.211,162.600 216.400 M132.866 216.800 C 132.974 217.130,133.588 217.432,134.231 217.472 C 134.965 217.517,135.103 217.464,134.600 217.329 C 134.160 217.211,133.546 216.908,133.235 216.657 C 132.791 216.298,132.712 216.328,132.866 216.800 M158.800 217.200 L 157.800 217.520 158.800 217.520 C 159.350 217.520,160.250 217.376,160.800 217.200 L 161.800 216.880 160.800 216.880 C 160.250 216.880,159.350 217.024,158.800 217.200 M143.600 218.073 C 147.450 218.258,152.130 218.272,154.000 218.105 C 156.502 217.880,154.652 217.792,147.000 217.769 L 136.600 217.738 143.600 218.073 M182.600 222.412 C 179.519 224.149,179.327 224.564,182.313 223.032 C 184.101 222.114,186.032 220.821,185.600 220.830 C 185.490 220.832,184.140 221.544,182.600 222.412 M173.600 226.000 C 173.067 226.345,173.067 226.388,173.600 226.388 C 173.930 226.388,174.470 226.213,174.800 226.000 C 175.333 225.655,175.333 225.612,174.800 225.612 C 174.470 225.612,173.930 225.787,173.600 226.000 M172.405 226.516 C 172.397 227.050,174.044 230.089,174.237 229.896 C 174.337 229.796,173.967 228.924,173.414 227.957 C 172.862 226.991,172.407 226.342,172.405 226.516 M143.800 229.243 C 147.980 229.450,151.760 229.815,152.200 230.054 C 152.916 230.443,152.937 230.425,152.400 229.875 C 151.915 229.378,150.302 229.223,144.000 229.064 L 136.200 228.867 143.800 229.243 M174.511 230.700 C 175.540 232.650,178.961 237.973,179.097 237.836 C 179.196 237.737,178.753 236.879,178.113 235.928 C 177.472 234.978,176.457 233.345,175.857 232.300 C 175.257 231.255,174.673 230.400,174.560 230.400 C 174.446 230.400,174.424 230.535,174.511 230.700 M154.150 233.400 C 154.474 234.060,155.031 234.960,155.389 235.400 C 155.997 236.148,156.001 236.122,155.450 235.000 C 155.126 234.340,154.569 233.440,154.211 233.000 C 153.603 232.252,153.599 232.278,154.150 233.400 M156.000 236.499 C 156.000 236.897,158.810 241.600,159.049 241.600 C 159.164 241.600,158.678 240.565,157.969 239.300 C 156.664 236.972,156.000 236.027,156.000 236.499 M181.623 242.200 C 189.745 255.868,215.091 287.042,216.741 285.392 C 216.880 285.254,216.635 284.949,216.197 284.716 C 211.856 282.402,194.811 261.540,184.404 245.800 C 181.410 241.271,179.942 239.371,181.623 242.200 M159.573 242.750 C 159.794 243.162,160.904 245.007,162.041 246.850 C 163.177 248.692,164.431 250.769,164.827 251.465 C 165.891 253.335,169.291 258.400,169.482 258.400 C 169.681 258.400,169.826 258.644,165.806 252.200 C 164.022 249.340,161.883 245.875,161.052 244.500 C 159.672 242.215,158.622 240.972,159.573 242.750 M176.790 269.506 C 178.168 271.544,179.494 273.334,179.736 273.484 C 180.245 273.799,175.799 267.298,174.890 266.400 C 174.557 266.070,175.411 267.468,176.790 269.506 M132.823 274.633 C 132.836 275.495,133.003 276.920,133.194 277.800 C 133.452 278.986,133.484 278.624,133.319 276.400 C 133.077 273.147,132.786 272.110,132.823 274.633 M180.857 275.300 C 188.708 286.501,195.909 293.501,202.896 296.725 C 206.019 298.167,205.620 297.705,202.115 295.823 C 194.644 291.812,191.163 288.460,182.672 277.100 C 180.406 274.068,179.053 272.726,180.857 275.300 M113.018 279.018 C 112.865 280.039,112.830 280.963,112.940 281.073 C 113.050 281.183,113.265 280.439,113.418 279.418 C 113.571 278.398,113.606 277.473,113.496 277.363 C 113.386 277.253,113.171 277.998,113.018 279.018 M133.634 281.000 C 133.622 281.440,133.787 282.070,134.000 282.400 C 134.514 283.195,134.514 282.196,134.000 281.000 L 133.656 280.200 133.634 281.000 M112.200 282.400 C 112.050 282.873,112.017 283.350,112.127 283.460 C 112.237 283.570,112.450 283.273,112.600 282.800 C 112.750 282.327,112.783 281.850,112.673 281.740 C 112.563 281.630,112.350 281.927,112.200 282.400 M134.400 283.353 C 134.400 283.782,135.590 286.000,135.821 286.000 C 135.931 286.000,135.723 285.415,135.359 284.700 C 134.617 283.240,134.400 282.936,134.400 283.353 M110.466 285.828 C 109.563 287.108,108.553 287.939,107.089 288.605 C 105.940 289.127,105.232 289.564,105.516 289.577 C 107.059 289.646,112.000 285.646,112.000 284.328 C 112.000 283.748,111.779 283.964,110.466 285.828 M217.800 286.294 C 218.648 287.126,221.600 288.987,221.600 288.689 C 221.600 288.592,220.565 287.837,219.300 287.011 C 218.035 286.185,217.360 285.862,217.800 286.294 M136.602 287.202 C 137.002 287.644,137.411 287.922,137.512 287.821 C 137.728 287.605,136.588 286.400,136.167 286.400 C 136.007 286.400,136.203 286.761,136.602 287.202 M138.000 288.222 C 138.000 288.543,140.469 289.644,140.881 289.506 C 141.116 289.428,140.564 289.072,139.654 288.714 C 138.744 288.357,138.000 288.135,138.000 288.222 M102.000 290.000 L 101.000 290.320 102.000 290.332 C 102.550 290.338,103.360 290.189,103.800 290.000 L 104.600 289.656 103.800 289.668 C 103.360 289.674,102.550 289.824,102.000 290.000 M143.000 290.000 C 143.660 290.168,144.650 290.309,145.200 290.313 L 146.200 290.320 145.200 290.000 C 144.650 289.824,143.660 289.683,143.000 289.687 L 141.800 289.695 143.000 290.000 M97.600 290.800 L 96.600 291.120 97.600 291.113 C 98.150 291.109,99.140 290.968,99.800 290.800 L 101.000 290.495 99.800 290.487 C 99.140 290.483,98.150 290.624,97.600 290.800 M148.600 290.800 C 149.260 290.968,150.430 291.105,151.200 291.105 L 152.600 291.105 151.400 290.800 C 150.740 290.632,149.570 290.495,148.800 290.495 L 147.400 290.495 148.600 290.800 M225.600 290.800 C 225.930 291.013,226.470 291.188,226.800 291.188 C 227.333 291.188,227.333 291.145,226.800 290.800 C 226.470 290.587,225.930 290.412,225.600 290.412 C 225.067 290.412,225.067 290.455,225.600 290.800 M94.406 291.900 C 94.410 292.332,94.525 292.431,94.706 292.160 C 94.868 291.918,95.270 291.617,95.600 291.492 C 96.001 291.339,95.901 291.253,95.300 291.232 C 94.695 291.210,94.402 291.430,94.406 291.900 M154.400 291.425 L 155.600 291.651 155.600 295.025 L 155.600 298.400 152.300 298.473 L 149.000 298.547 152.200 298.773 C 156.207 299.057,156.055 299.213,155.916 294.964 L 155.800 291.400 154.500 291.300 C 153.218 291.201,153.217 291.203,154.400 291.425 M228.000 291.600 C 228.330 291.813,228.960 291.978,229.400 291.966 L 230.200 291.944 229.400 291.600 C 228.204 291.086,227.205 291.086,228.000 291.600 M231.800 292.281 C 233.693 292.580,234.000 293.071,234.000 295.800 C 234.000 298.465,233.794 298.813,231.800 299.515 C 231.074 299.770,230.885 299.949,231.320 299.968 C 231.716 299.986,232.578 299.722,233.236 299.382 L 234.432 298.763 234.316 295.482 L 234.200 292.200 232.400 292.146 C 231.278 292.112,231.052 292.163,231.800 292.281 M206.644 298.182 C 207.328 298.498,208.408 298.859,209.044 298.984 C 210.033 299.179,209.998 299.133,208.800 298.663 C 206.640 297.816,205.113 297.476,206.644 298.182 M94.521 298.567 C 94.633 298.898,100.403 298.931,100.732 298.602 C 100.808 298.525,99.414 298.404,97.634 298.332 C 95.789 298.257,94.451 298.358,94.521 298.567 M115.500 298.300 C 120.615 298.363,128.985 298.363,134.100 298.300 C 139.215 298.236,135.030 298.185,124.800 298.185 C 114.570 298.185,110.385 298.236,115.500 298.300 M211.000 299.600 C 211.440 299.789,212.250 299.938,212.800 299.932 L 213.800 299.920 212.800 299.600 C 212.250 299.424,211.440 299.274,211.000 299.268 L 210.200 299.256 211.000 299.600 M215.000 300.399 C 216.201 300.706,221.881 300.928,221.567 300.656 C 221.475 300.576,219.690 300.417,217.600 300.302 C 215.510 300.186,214.340 300.230,215.000 300.399 M226.000 300.400 L 223.800 300.670 226.200 300.707 C 227.520 300.727,228.960 300.589,229.400 300.400 C 230.385 299.977,229.454 299.977,226.000 300.400 " stroke="none" fill="#8fe8e1" fill-rule="evenodd"></path><path id="path4" d="M252.305 92.283 C 252.802 92.379,253.522 92.375,253.905 92.275 C 254.287 92.175,253.880 92.096,253.000 92.101 C 252.120 92.105,251.807 92.187,252.305 92.283 M257.500 92.282 C 257.995 92.378,258.805 92.378,259.300 92.282 C 259.795 92.187,259.390 92.109,258.400 92.109 C 257.410 92.109,257.005 92.187,257.500 92.282 M249.105 92.683 C 249.602 92.779,250.322 92.775,250.705 92.675 C 251.087 92.575,250.680 92.496,249.800 92.501 C 248.920 92.505,248.607 92.587,249.105 92.683 M261.105 92.683 C 261.602 92.779,262.322 92.775,262.705 92.675 C 263.087 92.575,262.680 92.496,261.800 92.501 C 260.920 92.505,260.607 92.587,261.105 92.683 M268.000 94.288 C 268.330 94.411,269.455 94.940,270.500 95.463 C 271.545 95.986,272.400 96.323,272.400 96.213 C 272.400 95.900,268.486 93.996,267.913 94.032 C 267.579 94.052,267.609 94.141,268.000 94.288 M239.900 95.429 C 238.349 96.270,238.525 96.561,240.100 95.759 C 241.608 94.993,241.875 94.794,241.367 94.816 C 241.165 94.825,240.505 95.101,239.900 95.429 M233.586 100.300 L 231.400 102.600 233.700 100.414 C 234.965 99.211,236.000 98.176,236.000 98.114 C 236.000 97.817,235.618 98.163,233.586 100.300 M254.707 103.890 C 255.426 103.979,256.506 103.977,257.107 103.886 C 257.708 103.795,257.120 103.722,255.800 103.724 C 254.480 103.726,253.988 103.801,254.707 103.890 M250.245 104.328 C 250.133 104.508,250.573 104.577,251.221 104.482 C 251.870 104.387,252.400 104.240,252.400 104.155 C 252.400 103.850,250.443 104.007,250.245 104.328 M259.300 104.276 C 259.685 104.376,260.315 104.376,260.700 104.276 C 261.085 104.175,260.770 104.093,260.000 104.093 C 259.230 104.093,258.915 104.175,259.300 104.276 M228.580 107.240 C 228.011 108.362,227.613 109.347,227.695 109.429 C 227.777 109.511,228.327 108.593,228.918 107.389 C 229.508 106.185,229.906 105.200,229.802 105.200 C 229.698 105.200,229.148 106.118,228.580 107.240 M246.460 106.403 C 245.547 107.064,244.800 107.703,244.800 107.823 C 244.800 108.011,247.054 106.477,248.180 105.522 C 249.127 104.719,247.956 105.318,246.460 106.403 M278.200 113.178 C 277.320 113.595,276.713 113.950,276.851 113.968 C 277.240 114.018,280.000 112.814,280.000 112.595 C 280.000 112.327,279.999 112.327,278.200 113.178 M239.040 118.040 C 238.893 118.957,238.852 119.785,238.947 119.880 C 239.042 119.976,239.246 119.310,239.400 118.400 C 239.554 117.490,239.596 116.662,239.493 116.560 C 239.390 116.457,239.187 117.123,239.040 118.040 M225.309 118.800 C 225.309 119.790,225.387 120.195,225.482 119.700 C 225.578 119.205,225.578 118.395,225.482 117.900 C 225.387 117.405,225.309 117.810,225.309 118.800 M238.531 123.000 C 238.533 124.540,238.605 125.121,238.692 124.291 C 238.779 123.461,238.777 122.201,238.689 121.491 C 238.600 120.781,238.529 121.460,238.531 123.000 M224.893 122.000 C 224.893 122.770,224.975 123.085,225.076 122.700 C 225.176 122.315,225.176 121.685,225.076 121.300 C 224.975 120.915,224.893 121.230,224.893 122.000 M224.570 135.600 C 224.570 140.330,224.628 142.265,224.698 139.900 C 224.769 137.535,224.769 133.665,224.698 131.300 C 224.628 128.935,224.570 130.870,224.570 135.600 M257.061 131.900 C 256.892 132.173,268.189 132.166,280.800 131.885 C 283.550 131.824,279.376 131.735,271.524 131.687 C 263.672 131.639,257.164 131.735,257.061 131.900 M238.144 135.600 C 238.144 137.690,238.212 138.545,238.294 137.500 C 238.376 136.455,238.376 134.745,238.294 133.700 C 238.212 132.655,238.144 133.510,238.144 135.600 M256.486 137.471 C 256.370 144.019,255.774 143.600,265.207 143.600 L 272.756 143.600 272.911 145.300 L 273.065 147.000 273.033 145.200 L 273.000 143.400 265.430 143.291 C 256.220 143.158,256.857 143.583,256.698 137.461 L 256.573 132.600 256.486 137.471 M144.126 143.100 C 148.266 143.165,154.926 143.165,158.926 143.099 C 162.927 143.034,159.540 142.981,151.400 142.981 C 143.260 142.981,139.987 143.034,144.126 143.100 M93.843 143.833 C 92.868 146.372,93.777 151.632,95.180 151.575 C 95.543 151.560,95.412 151.394,94.861 151.173 C 93.954 150.810,93.927 150.670,94.061 146.998 C 94.210 142.915,94.208 142.881,93.843 143.833 M105.527 143.500 C 110.217 143.564,117.777 143.564,122.327 143.499 C 126.877 143.435,123.040 143.383,113.800 143.383 C 104.560 143.383,100.837 143.436,105.527 143.500 M170.100 143.876 C 170.485 143.976,171.115 143.976,171.500 143.876 C 171.885 143.775,171.570 143.693,170.800 143.693 C 170.030 143.693,169.715 143.775,170.100 143.876 M177.233 145.344 C 177.325 145.423,177.940 145.608,178.600 145.756 C 179.476 145.952,179.638 145.915,179.200 145.618 C 178.660 145.253,176.832 144.998,177.233 145.344 M238.531 148.200 C 238.533 149.740,238.605 150.321,238.692 149.491 C 238.779 148.661,238.777 147.401,238.689 146.691 C 238.600 145.981,238.529 146.660,238.531 148.200 M224.893 149.200 C 224.893 149.970,224.975 150.285,225.076 149.900 C 225.176 149.515,225.176 148.885,225.076 148.500 C 224.975 148.115,224.893 148.430,224.893 149.200 M272.493 151.200 C 272.493 151.970,272.575 152.285,272.676 151.900 C 272.776 151.515,272.776 150.885,272.676 150.500 C 272.575 150.115,272.493 150.430,272.493 151.200 M225.309 152.400 C 225.309 153.390,225.387 153.795,225.482 153.300 C 225.578 152.805,225.578 151.995,225.482 151.500 C 225.387 151.005,225.309 151.410,225.309 152.400 M285.709 152.800 C 285.709 153.790,285.787 154.195,285.882 153.700 C 285.978 153.205,285.978 152.395,285.882 151.900 C 285.787 151.405,285.709 151.810,285.709 152.800 M107.638 154.500 C 107.732 154.555,108.527 155.230,109.404 156.000 L 111.000 157.400 109.622 155.900 C 108.863 155.075,108.068 154.400,107.855 154.400 C 107.641 154.400,107.544 154.445,107.638 154.500 M142.500 155.099 C 145.305 155.168,149.895 155.168,152.700 155.099 C 155.505 155.030,153.210 154.974,147.600 154.974 C 141.990 154.974,139.695 155.030,142.500 155.099 M133.467 155.467 C 133.096 155.837,133.129 216.800,133.500 216.800 C 133.665 216.800,133.753 203.044,133.695 186.230 C 133.596 157.321,133.628 155.651,134.295 155.477 C 134.855 155.331,134.869 155.283,134.367 155.246 C 134.018 155.221,133.613 155.320,133.467 155.467 M159.505 155.483 C 160.002 155.579,160.722 155.575,161.105 155.475 C 161.487 155.375,161.080 155.296,160.200 155.301 C 159.320 155.305,159.007 155.387,159.505 155.483 M200.985 161.100 C 201.602 162.035,202.183 162.800,202.276 162.800 C 202.564 162.800,201.033 160.366,200.432 159.869 C 200.120 159.611,200.368 160.165,200.985 161.100 M242.804 161.342 C 243.835 162.526,246.902 164.800,247.465 164.800 C 247.641 164.800,247.069 164.325,246.193 163.745 C 245.317 163.165,243.972 162.130,243.204 161.445 C 241.870 160.255,241.852 160.251,242.804 161.342 M227.600 161.747 C 227.600 162.180,229.588 166.000,229.813 166.000 C 229.923 166.000,229.539 165.055,228.959 163.900 C 227.843 161.679,227.600 161.294,227.600 161.747 M176.800 162.525 C 176.800 162.594,177.385 163.179,178.100 163.825 L 179.400 165.000 178.225 163.700 C 177.130 162.488,176.800 162.216,176.800 162.525 M281.598 165.433 C 281.597 165.635,280.847 166.790,279.932 168.000 C 279.016 169.210,278.582 169.940,278.967 169.623 C 279.992 168.778,282.117 165.583,281.839 165.305 C 281.707 165.174,281.599 165.232,281.598 165.433 M180.585 167.100 C 181.202 168.035,181.783 168.800,181.876 168.800 C 182.164 168.800,180.633 166.366,180.032 165.869 C 179.720 165.611,179.968 166.165,180.585 167.100 M251.300 166.276 C 251.685 166.376,252.315 166.376,252.700 166.276 C 253.085 166.175,252.770 166.093,252.000 166.093 C 251.230 166.093,250.915 166.175,251.300 166.276 M113.394 221.200 C 113.394 251.450,113.442 263.825,113.500 248.700 C 113.558 233.575,113.558 208.825,113.500 193.700 C 113.442 178.575,113.394 190.950,113.394 221.200 M254.900 166.676 C 255.285 166.776,255.915 166.776,256.300 166.676 C 256.685 166.575,256.370 166.493,255.600 166.493 C 254.830 166.493,254.515 166.575,254.900 166.676 M233.583 170.900 C 234.564 171.945,235.419 172.800,235.483 172.800 C 235.784 172.800,235.466 172.441,233.700 170.783 L 231.800 169.000 233.583 170.900 M275.400 172.660 C 274.195 173.736,274.105 173.885,275.036 173.263 C 276.141 172.524,277.532 171.176,277.149 171.215 C 277.067 171.223,276.280 171.873,275.400 172.660 M207.334 180.000 C 207.334 181.650,207.405 182.325,207.491 181.500 C 207.578 180.675,207.578 179.325,207.491 178.500 C 207.405 177.675,207.334 178.350,207.334 180.000 M249.100 178.682 C 249.595 178.778,250.405 178.778,250.900 178.682 C 251.395 178.587,250.990 178.509,250.000 178.509 C 249.010 178.509,248.605 178.587,249.100 178.682 M260.300 178.682 C 260.795 178.778,261.605 178.778,262.100 178.682 C 262.595 178.587,262.190 178.509,261.200 178.509 C 260.210 178.509,259.805 178.587,260.300 178.682 M185.309 180.400 C 185.309 181.390,185.387 181.795,185.482 181.300 C 185.578 180.805,185.578 179.995,185.482 179.500 C 185.387 179.005,185.309 179.410,185.309 180.400 M253.700 179.094 C 254.745 179.176,256.455 179.176,257.500 179.094 C 258.545 179.012,257.690 178.944,255.600 178.944 C 253.510 178.944,252.655 179.012,253.700 179.094 M207.328 187.600 C 207.328 189.030,207.401 189.615,207.489 188.900 C 207.578 188.185,207.578 187.015,207.489 186.300 C 207.401 185.585,207.328 186.170,207.328 187.600 M185.309 190.000 C 185.309 190.990,185.387 191.395,185.482 190.900 C 185.578 190.405,185.578 189.595,185.482 189.100 C 185.387 188.605,185.309 189.010,185.309 190.000 M201.853 204.500 L 201.133 205.800 201.958 204.800 C 202.689 203.913,203.014 203.200,202.686 203.200 C 202.624 203.200,202.249 203.785,201.853 204.500 M193.988 214.700 L 191.400 217.400 194.100 214.812 C 195.585 213.388,196.800 212.173,196.800 212.112 C 196.800 211.817,196.393 212.192,193.988 214.700 M134.900 217.076 C 135.285 217.176,135.915 217.176,136.300 217.076 C 136.685 216.975,136.370 216.893,135.600 216.893 C 134.830 216.893,134.515 216.975,134.900 217.076 M139.516 217.497 C 140.899 217.575,143.059 217.574,144.316 217.495 C 145.572 217.416,144.440 217.352,141.800 217.353 C 139.160 217.353,138.132 217.418,139.516 217.497 M153.091 217.489 C 153.801 217.577,155.061 217.579,155.891 217.492 C 156.721 217.405,156.140 217.333,154.600 217.331 C 153.060 217.329,152.381 217.400,153.091 217.489 M187.414 220.046 C 185.313 221.626,185.116 221.887,186.727 220.962 C 187.862 220.310,189.647 218.745,189.162 218.827 C 189.073 218.842,188.286 219.391,187.414 220.046 M179.000 224.614 C 178.340 224.917,178.070 225.166,178.400 225.168 C 178.730 225.170,179.450 224.914,180.000 224.600 C 181.265 223.877,180.589 223.887,179.000 224.614 M133.297 251.500 L 133.393 273.800 133.500 251.723 L 133.607 229.646 135.303 229.493 L 137.000 229.340 135.100 229.270 L 133.200 229.200 133.297 251.500 M145.500 229.895 C 146.655 229.976,148.545 229.976,149.700 229.895 C 150.855 229.814,149.910 229.748,147.600 229.748 C 145.290 229.748,144.345 229.814,145.500 229.895 M153.160 232.600 C 153.834 233.905,154.388 234.628,154.385 234.200 C 154.383 233.980,154.014 233.350,153.564 232.800 C 153.021 232.136,152.885 232.069,153.160 232.600 M179.149 237.400 C 179.365 237.840,179.834 238.560,180.193 239.000 L 180.844 239.800 180.451 239.000 C 180.235 238.560,179.766 237.840,179.407 237.400 L 178.756 236.600 179.149 237.400 M156.406 238.077 C 156.398 238.439,158.028 241.200,158.250 241.200 C 158.344 241.200,158.153 240.705,157.825 240.100 C 157.010 238.595,156.413 237.744,156.406 238.077 M164.360 251.400 C 165.034 252.705,165.588 253.428,165.585 253.000 C 165.583 252.780,165.214 252.150,164.764 251.600 C 164.221 250.936,164.085 250.869,164.360 251.400 M188.800 252.000 C 189.270 252.660,189.744 253.200,189.854 253.200 C 189.964 253.200,189.670 252.660,189.200 252.000 C 188.730 251.340,188.256 250.800,188.146 250.800 C 188.036 250.800,188.330 251.340,188.800 252.000 M192.800 257.600 C 193.270 258.260,193.744 258.800,193.854 258.800 C 193.964 258.800,193.670 258.260,193.200 257.600 C 192.730 256.940,192.256 256.400,192.146 256.400 C 192.036 256.400,192.330 256.940,192.800 257.600 M168.667 258.406 C 169.059 259.070,169.798 260.105,170.310 260.706 C 170.821 261.308,170.575 260.765,169.763 259.500 C 168.224 257.103,167.428 256.307,168.667 258.406 M195.200 260.800 C 195.670 261.460,196.144 262.000,196.254 262.000 C 196.364 262.000,196.070 261.460,195.600 260.800 C 195.130 260.140,194.656 259.600,194.546 259.600 C 194.436 259.600,194.730 260.140,195.200 260.800 M171.877 263.231 C 172.275 263.908,172.856 264.673,173.168 264.931 C 173.480 265.189,173.232 264.635,172.615 263.700 C 171.320 261.737,170.809 261.412,171.877 263.231 M178.800 273.200 C 179.270 273.860,179.744 274.400,179.854 274.400 C 179.964 274.400,179.670 273.860,179.200 273.200 C 178.730 272.540,178.256 272.000,178.146 272.000 C 178.036 272.000,178.330 272.540,178.800 273.200 M182.000 277.600 C 182.470 278.260,182.944 278.800,183.054 278.800 C 183.164 278.800,182.870 278.260,182.400 277.600 C 181.930 276.940,181.456 276.400,181.346 276.400 C 181.236 276.400,181.530 276.940,182.000 277.600 M133.693 278.000 C 133.693 278.770,133.775 279.085,133.876 278.700 C 133.976 278.315,133.976 277.685,133.876 277.300 C 133.775 276.915,133.693 277.230,133.693 278.000 M135.928 285.400 C 136.363 286.273,137.849 287.709,138.800 288.175 C 139.130 288.337,138.951 288.105,138.401 287.659 C 137.852 287.213,136.981 286.342,136.466 285.724 C 135.931 285.083,135.700 284.944,135.928 285.400 M142.700 289.482 C 143.195 289.578,144.005 289.578,144.500 289.482 C 144.995 289.387,144.590 289.309,143.600 289.309 C 142.610 289.309,142.205 289.387,142.700 289.482 M148.300 290.282 C 148.795 290.378,149.605 290.378,150.100 290.282 C 150.595 290.187,150.190 290.109,149.200 290.109 C 148.210 290.109,147.805 290.187,148.300 290.282 M94.080 291.280 C 93.551 291.809,93.390 298.623,93.900 298.939 C 94.065 299.041,94.200 297.396,94.200 295.282 C 94.200 291.523,94.222 291.432,95.200 291.159 C 96.038 290.925,96.067 290.873,95.380 290.840 C 94.929 290.818,94.344 291.016,94.080 291.280 M154.486 291.076 L 155.972 291.247 156.108 294.923 L 156.243 298.600 156.222 294.800 L 156.200 291.000 154.600 290.952 L 153.000 290.905 154.486 291.076 M231.500 291.882 C 231.995 291.978,232.805 291.978,233.300 291.882 C 233.795 291.787,233.390 291.709,232.400 291.709 C 231.410 291.709,231.005 291.787,231.500 291.882 M234.540 295.600 C 234.540 297.470,234.609 298.235,234.693 297.300 C 234.777 296.365,234.777 294.835,234.693 293.900 C 234.609 292.965,234.540 293.730,234.540 295.600 M200.400 295.797 C 200.400 296.068,203.649 297.684,203.830 297.503 C 203.914 297.419,203.176 296.959,202.191 296.481 C 201.206 296.002,200.400 295.694,200.400 295.797 M115.500 298.700 C 120.615 298.763,128.985 298.763,134.100 298.700 C 139.215 298.636,135.030 298.585,124.800 298.585 C 114.570 298.585,110.385 298.636,115.500 298.700 M101.300 299.091 C 102.125 299.178,103.475 299.178,104.300 299.091 C 105.125 299.005,104.450 298.934,102.800 298.934 C 101.150 298.934,100.475 299.005,101.300 299.091 M145.511 299.093 C 146.451 299.178,147.891 299.177,148.711 299.091 C 149.530 299.005,148.760 298.936,147.000 298.937 C 145.240 298.939,144.570 299.009,145.511 299.093 M153.700 299.476 C 154.085 299.576,154.715 299.576,155.100 299.476 C 155.485 299.375,155.170 299.293,154.400 299.293 C 153.630 299.293,153.315 299.375,153.700 299.476 M217.111 301.093 C 218.051 301.178,219.491 301.177,220.311 301.091 C 221.130 301.005,220.360 300.936,218.600 300.937 C 216.840 300.939,216.170 301.009,217.111 301.093 M225.100 301.089 C 225.815 301.178,226.985 301.178,227.700 301.089 C 228.415 301.001,227.830 300.928,226.400 300.928 C 224.970 300.928,224.385 301.001,225.100 301.089 " stroke="none" fill="#39dacc" fill-rule="evenodd"></path></g></svg>