<svg id="svg" version="1.1" width="400" height="400" viewBox="0 0 400 400" xmlns="http://www.w3.org/2000/svg" xmlns:xlink="http://www.w3.org/1999/xlink" ><g id="svgg"><path id="path0" d="M87.117 76.285 C 53.168 110.229,36.190 127.473,36.513 127.678 C 36.781 127.849,52.154 127.991,70.676 127.994 C 89.198 127.997,104.446 128.150,104.559 128.334 C 104.672 128.517,104.866 131.954,104.989 135.972 C 105.112 139.989,105.382 143.593,105.589 143.980 C 105.797 144.367,106.163 145.919,106.405 147.429 C 106.816 150.002,107.917 153.856,109.026 156.600 C 109.293 157.260,109.641 158.228,109.799 158.752 C 110.778 161.987,116.298 171.591,119.369 175.400 C 133.138 192.478,154.406 201.442,179.445 200.719 C 189.205 200.437,189.905 201.181,186.854 208.586 C 185.707 211.367,185.919 223.740,187.178 227.586 C 188.287 230.975,191.563 236.975,194.186 240.424 C 197.911 245.322,197.093 247.054,190.800 247.591 C 173.211 249.090,160.948 250.793,153.400 252.784 C 151.860 253.191,149.250 253.830,147.600 254.205 C 145.950 254.580,143.340 255.299,141.800 255.802 C 140.260 256.305,137.560 257.174,135.800 257.733 C 118.959 263.085,101.206 275.445,93.287 287.334 C 92.139 289.057,91.200 290.559,91.200 290.672 C 91.200 290.784,90.867 291.354,90.461 291.938 C 90.054 292.522,89.619 293.360,89.493 293.800 C 89.367 294.240,88.694 295.950,87.998 297.600 C 81.679 312.585,81.493 327.109,87.443 340.800 C 88.329 342.838,89.645 345.310,90.211 346.000 C 90.482 346.330,90.982 347.151,91.323 347.824 C 93.490 352.108,100.365 359.051,106.700 363.354 C 107.635 363.989,108.400 364.625,108.400 364.767 C 108.400 364.909,108.895 365.243,109.500 365.509 C 110.105 365.775,111.320 366.425,112.200 366.953 C 113.080 367.480,114.520 368.306,115.400 368.788 C 117.719 370.057,128.856 374.800,129.518 374.800 C 129.827 374.800,130.646 375.060,131.340 375.379 C 132.741 376.022,136.081 376.981,139.951 377.852 C 141.354 378.168,142.800 378.586,143.164 378.780 C 143.527 378.975,145.169 379.256,146.812 379.405 C 148.456 379.555,150.790 379.935,152.000 380.250 C 153.322 380.595,157.234 380.915,161.800 381.052 C 166.161 381.183,170.362 381.519,171.658 381.840 C 174.521 382.550,177.078 382.550,179.942 381.841 C 181.276 381.510,185.474 381.189,190.200 381.056 C 194.600 380.932,198.830 380.636,199.600 380.397 C 200.370 380.159,202.800 379.713,205.000 379.406 C 209.343 378.801,214.195 377.750,218.600 376.461 C 220.140 376.010,222.570 375.303,224.000 374.888 C 227.430 373.894,236.185 370.344,240.200 368.320 C 241.960 367.432,244.201 366.322,245.179 365.853 C 257.470 359.961,274.698 344.234,279.413 334.600 C 279.736 333.940,280.499 332.494,281.108 331.386 C 289.417 316.281,291.786 292.413,286.253 279.547 C 285.934 278.806,285.102 276.850,284.404 275.200 C 283.706 273.550,282.474 271.044,281.667 269.631 C 280.860 268.219,279.900 266.538,279.532 265.898 C 277.946 263.130,266.243 250.960,258.796 244.334 C 253.487 239.610,251.394 237.817,250.235 237.000 C 248.792 235.983,246.661 234.291,246.400 233.955 C 246.290 233.813,244.400 232.357,242.200 230.720 C 235.029 225.382,228.407 218.796,227.621 216.220 C 227.416 215.549,226.951 214.190,226.588 213.200 C 225.215 209.464,226.150 201.896,228.416 198.400 C 228.630 198.070,228.926 197.530,229.073 197.200 C 230.369 194.304,236.360 188.236,243.966 182.117 C 249.760 177.456,250.544 176.725,256.804 170.166 C 269.473 156.892,276.299 137.965,274.487 121.133 C 273.404 111.079,273.080 109.447,270.963 103.387 C 269.673 99.691,268.225 101.453,292.636 77.019 C 310.762 58.877,314.977 54.849,315.436 55.230 C 315.886 55.603,316.000 57.271,316.000 63.462 L 316.000 71.227 314.600 72.053 C 313.830 72.507,313.200 73.027,313.200 73.209 C 313.200 73.390,312.773 74.047,312.252 74.669 C 311.730 75.291,311.169 76.430,311.006 77.200 C 310.842 77.970,310.503 78.853,310.254 79.161 C 309.295 80.347,309.643 184.977,310.615 187.600 C 311.464 189.894,313.476 193.200,314.022 193.200 C 314.196 193.200,314.847 193.616,315.469 194.124 C 316.896 195.290,321.158 196.571,322.660 196.286 C 328.583 195.159,331.587 192.666,333.192 187.546 C 333.972 185.057,333.990 183.834,333.995 132.908 L 334.000 80.817 333.129 78.108 C 332.651 76.619,331.976 75.069,331.629 74.664 C 330.082 72.855,328.126 71.097,327.300 70.773 L 326.400 70.420 326.400 56.827 L 326.400 43.235 335.195 34.458 C 341.642 28.025,343.823 25.618,343.363 25.441 C 343.017 25.308,296.716 25.200,240.471 25.200 L 138.207 25.200 87.117 76.285 M188.200 65.398 C 198.058 67.237,203.875 70.469,211.528 78.357 C 214.887 81.821,220.800 89.082,220.800 89.745 C 220.800 89.890,221.448 90.930,222.240 92.057 C 225.255 96.347,229.382 105.658,231.787 113.600 C 232.087 114.590,232.513 115.940,232.734 116.600 C 233.259 118.168,233.912 120.861,234.432 123.600 C 234.661 124.810,235.041 126.610,235.276 127.600 C 236.356 132.156,236.536 134.447,236.550 143.800 C 236.566 153.941,236.390 155.735,234.826 161.400 C 228.164 185.536,197.200 197.133,175.814 183.501 C 165.770 177.098,157.082 165.998,150.379 151.000 C 148.570 146.951,145.332 136.404,144.968 133.372 C 144.837 132.287,144.498 130.770,144.213 130.000 C 143.928 129.230,143.571 127.250,143.420 125.600 C 143.269 123.950,142.888 121.185,142.573 119.456 C 141.931 115.933,141.824 107.448,142.390 104.999 C 142.593 104.118,142.967 101.691,143.221 99.604 C 143.474 97.518,143.918 95.179,144.207 94.406 C 144.496 93.633,144.843 92.496,144.979 91.880 C 145.259 90.608,147.879 85.098,149.487 82.400 C 150.453 80.778,156.609 74.301,158.610 72.800 C 163.457 69.165,170.583 66.327,178.000 65.077 C 180.314 64.688,185.219 64.842,188.200 65.398 M212.227 259.000 C 213.804 259.480,217.465 261.788,220.603 264.280 C 220.824 264.456,222.229 265.500,223.725 266.600 C 225.221 267.700,227.408 269.320,228.584 270.200 C 229.760 271.080,231.113 272.070,231.589 272.400 C 232.932 273.330,234.325 274.426,236.926 276.600 C 238.242 277.700,240.057 279.199,240.959 279.932 C 247.310 285.087,252.568 291.649,256.647 299.512 C 257.611 301.371,258.400 303.203,258.400 303.584 C 258.400 303.965,258.655 304.800,258.967 305.439 C 260.764 309.116,260.764 324.884,258.967 328.561 C 258.655 329.200,258.400 330.127,258.400 330.621 C 258.400 333.142,253.187 341.478,248.512 346.435 C 244.118 351.092,232.922 358.357,230.051 358.413 C 229.693 358.420,229.068 358.677,228.663 358.984 C 228.258 359.291,227.178 359.666,226.263 359.816 C 225.348 359.967,224.400 360.252,224.155 360.449 C 223.910 360.646,222.650 360.992,221.355 361.219 C 220.060 361.446,217.920 361.884,216.600 362.194 C 215.280 362.503,212.670 362.871,210.800 363.011 C 208.930 363.151,206.103 363.521,204.517 363.833 C 201.209 364.484,192.661 364.559,190.000 363.960 C 189.010 363.738,185.860 363.380,183.000 363.166 C 180.140 362.952,176.900 362.595,175.800 362.375 C 174.700 362.154,172.519 361.728,170.953 361.429 C 169.388 361.130,167.768 360.704,167.353 360.482 C 166.939 360.260,165.700 359.952,164.600 359.796 C 163.500 359.641,162.201 359.263,161.714 358.957 C 161.227 358.650,160.500 358.400,160.099 358.400 C 159.697 358.400,158.663 358.040,157.800 357.600 C 156.937 357.160,156.061 356.800,155.854 356.800 C 155.518 356.800,154.464 356.326,148.600 353.534 C 147.720 353.115,146.637 352.554,146.194 352.286 C 145.751 352.019,144.671 351.365,143.794 350.832 C 132.092 343.729,123.038 330.612,121.219 318.123 C 120.302 311.825,120.954 301.731,122.571 297.200 C 123.968 293.286,126.903 287.855,128.777 285.717 C 129.009 285.451,129.200 285.080,129.200 284.891 C 129.200 282.980,141.125 273.266,146.800 270.553 C 154.136 267.047,153.339 267.377,160.000 265.103 C 164.753 263.481,168.471 262.400,169.294 262.400 C 169.711 262.400,171.616 262.056,173.526 261.636 C 180.127 260.185,184.434 259.571,190.662 259.196 C 194.100 258.989,197.008 258.725,197.124 258.610 C 197.643 258.090,210.314 258.418,212.227 259.000 " stroke="none" fill="#fafbfc" fill-rule="evenodd"></path><path id="path1" d="M0.000 200.000 L 0.000 400.000 200.000 400.000 L 400.000 400.000 400.000 200.000 L 400.000 0.000 200.000 0.000 L 0.000 0.000 0.000 200.000 M345.226 24.814 C 346.514 25.503,346.322 25.740,336.600 35.429 L 327.200 44.798 327.200 56.812 L 327.200 68.827 328.600 69.653 C 329.370 70.107,330.000 70.620,330.000 70.793 C 330.000 70.965,330.373 71.204,330.830 71.324 C 331.286 71.443,331.757 71.914,331.876 72.370 C 331.996 72.827,332.342 73.200,332.647 73.200 C 332.951 73.200,333.200 73.446,333.200 73.746 C 333.200 74.046,333.605 74.807,334.100 75.436 L 335.000 76.580 335.000 132.800 L 335.000 189.020 334.100 190.164 C 333.605 190.793,333.200 191.445,333.200 191.613 C 333.200 192.158,331.037 194.400,330.511 194.400 C 330.230 194.400,330.000 194.652,330.000 194.961 C 330.000 195.269,329.505 195.725,328.900 195.973 C 328.295 196.222,327.350 196.687,326.800 197.007 C 324.811 198.164,316.000 197.616,316.000 196.336 C 316.000 196.151,315.650 196.000,315.223 196.000 C 314.795 196.000,314.210 195.673,313.923 195.274 C 313.635 194.874,313.085 194.430,312.700 194.286 C 312.315 194.143,312.000 193.758,312.000 193.432 C 312.000 193.106,311.774 192.696,311.499 192.520 C 311.223 192.344,310.503 191.470,309.899 190.578 L 308.800 188.957 308.800 133.097 C 308.800 77.927,308.858 75.200,310.021 75.200 C 310.182 75.200,310.426 74.750,310.564 74.200 C 310.702 73.650,311.082 73.200,311.408 73.200 C 311.733 73.200,312.000 72.955,312.000 72.656 C 312.000 72.357,312.719 71.502,313.598 70.756 L 315.196 69.400 315.198 63.300 C 315.199 59.945,315.113 57.200,315.007 57.200 C 314.901 57.200,305.245 66.775,293.549 78.477 L 272.283 99.755 272.783 100.977 C 273.681 103.173,274.814 107.346,275.232 110.000 C 275.457 111.430,275.902 114.040,276.221 115.800 C 276.889 119.491,277.001 130.033,276.404 133.177 C 276.187 134.325,275.815 136.915,275.578 138.932 C 275.165 142.449,274.173 146.316,272.967 149.114 C 272.655 149.836,272.399 150.736,272.399 151.114 C 272.398 151.491,272.038 152.389,271.599 153.110 C 271.159 153.830,270.800 154.598,270.800 154.816 C 270.800 155.149,269.782 157.016,267.795 160.326 C 265.166 164.705,260.458 170.266,255.032 175.400 C 252.242 178.040,249.248 180.875,248.379 181.700 C 247.510 182.525,246.628 183.200,246.419 183.200 C 246.211 183.200,245.896 183.444,245.720 183.743 C 245.544 184.041,244.320 185.148,243.000 186.201 C 238.899 189.476,231.600 197.237,231.600 198.323 C 231.600 198.564,231.356 198.904,231.058 199.080 C 230.759 199.256,230.015 200.883,229.404 202.695 C 226.624 210.932,229.659 217.257,240.814 226.475 C 241.796 227.287,243.033 228.322,243.561 228.775 C 244.090 229.229,244.647 229.600,244.800 229.600 C 244.952 229.600,245.697 230.202,246.454 230.937 C 247.211 231.672,249.358 233.427,251.226 234.837 C 253.094 236.247,254.888 237.628,255.211 237.906 C 255.890 238.490,256.601 239.097,261.409 243.200 C 268.140 248.944,278.800 260.184,278.800 261.537 C 278.800 261.770,279.027 262.104,279.304 262.280 C 279.903 262.661,282.000 265.825,282.000 266.349 C 282.000 266.550,282.253 266.812,282.562 266.930 C 282.872 267.049,283.243 267.686,283.388 268.345 C 283.533 269.005,283.898 269.750,284.200 270.000 C 284.502 270.250,284.864 270.983,285.006 271.628 C 285.148 272.272,285.422 272.800,285.616 272.800 C 285.809 272.800,286.184 273.520,286.447 274.400 C 286.711 275.280,287.063 276.000,287.230 276.000 C 287.397 276.000,287.718 276.859,287.943 277.908 C 288.168 278.958,288.632 280.353,288.974 281.008 C 289.315 281.664,289.604 282.830,289.615 283.600 C 289.626 284.370,289.926 285.720,290.282 286.600 C 291.299 289.113,291.522 307.376,290.578 310.873 C 290.203 312.263,289.765 314.210,289.604 315.200 C 289.442 316.190,289.016 317.669,288.655 318.487 C 288.295 319.305,288.000 320.396,288.000 320.911 C 288.000 321.426,287.736 322.196,287.413 322.624 C 287.090 323.051,286.820 323.681,286.813 324.025 C 286.806 324.369,285.990 326.238,285.000 328.178 C 284.010 330.118,283.200 331.958,283.200 332.265 C 283.200 332.573,282.930 332.929,282.600 333.055 C 282.270 333.182,282.000 333.533,282.000 333.835 C 282.000 334.137,281.325 335.423,280.501 336.692 C 279.676 337.962,278.785 339.495,278.520 340.100 C 278.255 340.705,277.850 341.200,277.619 341.200 C 277.389 341.200,277.200 341.388,277.200 341.618 C 277.200 343.002,267.451 353.450,263.457 356.347 C 262.436 357.087,261.600 357.852,261.600 358.047 C 261.600 358.241,261.259 358.400,260.843 358.400 C 260.426 358.400,259.995 358.636,259.885 358.924 C 259.774 359.212,258.360 360.334,256.742 361.417 C 255.124 362.500,253.710 363.500,253.600 363.638 C 253.490 363.775,252.796 364.228,252.058 364.644 C 248.297 366.763,245.142 368.452,242.800 369.602 C 241.370 370.303,239.930 371.041,239.600 371.242 C 239.270 371.442,238.550 371.802,238.000 372.042 C 237.450 372.282,236.280 372.810,235.400 373.215 C 234.520 373.620,232.720 374.339,231.400 374.813 C 230.080 375.288,228.490 375.929,227.866 376.238 C 227.243 376.548,225.983 376.916,225.066 377.055 C 224.150 377.195,223.220 377.449,223.000 377.620 C 222.492 378.015,216.659 379.527,213.000 380.211 C 211.460 380.500,209.930 380.841,209.600 380.970 C 204.519 382.955,156.506 384.396,153.679 382.649 C 153.457 382.511,151.413 382.208,149.137 381.975 C 145.350 381.587,142.407 380.991,136.400 379.395 C 135.190 379.073,133.443 378.623,132.517 378.394 C 131.591 378.165,130.726 377.803,130.593 377.589 C 130.461 377.375,129.951 377.200,129.461 377.200 C 128.970 377.200,127.863 376.840,127.000 376.400 C 126.137 375.960,125.204 375.600,124.926 375.600 C 124.108 375.600,113.780 370.727,111.539 369.284 C 110.955 368.908,109.687 368.138,108.720 367.574 C 106.574 366.320,99.600 360.778,99.600 360.326 C 99.600 360.147,99.396 360.000,99.147 360.000 C 98.550 360.000,95.044 356.246,91.862 352.200 C 90.825 350.880,89.761 349.540,89.498 349.221 C 88.915 348.514,88.090 347.007,86.420 343.600 C 85.719 342.170,84.991 340.709,84.802 340.353 C 84.070 338.971,82.400 333.690,82.400 332.756 C 82.400 332.215,82.040 330.748,81.600 329.496 C 80.447 326.216,80.423 314.340,81.563 310.902 C 81.982 309.636,82.432 307.718,82.563 306.640 C 82.694 305.563,82.965 304.483,83.165 304.240 C 83.365 303.998,83.658 303.080,83.816 302.200 C 83.974 301.320,84.333 300.150,84.614 299.600 C 84.895 299.050,85.611 297.520,86.205 296.200 C 88.477 291.154,90.195 287.805,90.846 287.154 C 91.217 286.783,91.630 286.135,91.764 285.714 C 91.897 285.293,92.635 284.263,93.403 283.424 C 94.171 282.586,94.800 281.762,94.800 281.595 C 94.800 280.266,108.408 268.000,109.882 268.000 C 110.120 268.000,110.418 267.730,110.545 267.400 C 110.671 267.070,111.113 266.800,111.525 266.800 C 111.938 266.800,112.602 266.440,113.000 266.000 C 113.398 265.560,114.062 265.200,114.475 265.200 C 114.887 265.200,115.324 264.943,115.445 264.628 C 115.565 264.313,116.145 263.856,116.732 263.612 C 117.319 263.368,118.520 262.729,119.400 262.192 C 120.280 261.655,121.450 261.013,122.000 260.765 C 122.550 260.517,123.270 260.152,123.600 259.954 C 123.930 259.756,124.650 259.395,125.200 259.152 C 125.750 258.908,126.940 258.369,127.844 257.954 C 128.748 257.540,129.747 257.200,130.064 257.200 C 130.381 257.200,130.811 257.038,131.020 256.841 C 131.610 256.283,136.422 254.483,138.163 254.169 C 139.022 254.014,140.192 253.644,140.763 253.346 C 141.333 253.048,142.070 252.804,142.400 252.803 C 142.730 252.801,144.080 252.452,145.400 252.027 C 148.380 251.066,150.601 250.507,154.200 249.809 C 155.740 249.511,157.450 249.094,158.000 248.883 C 158.550 248.672,160.336 248.365,161.968 248.202 C 163.600 248.039,165.490 247.739,166.168 247.535 C 167.961 246.997,179.601 245.641,186.900 245.121 C 193.039 244.683,193.200 244.649,193.200 243.769 C 193.200 243.273,193.010 242.803,192.777 242.726 C 192.257 242.552,189.723 238.388,187.772 234.498 C 186.971 232.901,186.155 231.496,185.958 231.374 C 185.761 231.252,185.600 230.796,185.600 230.360 C 185.600 229.925,185.240 228.862,184.800 228.000 C 183.565 225.580,183.587 209.617,184.829 207.235 C 185.285 206.360,185.600 205.148,185.529 204.541 L 185.400 203.437 177.800 203.538 C 173.392 203.597,169.360 203.456,168.200 203.203 C 167.100 202.964,164.490 202.593,162.400 202.379 C 160.310 202.166,157.610 201.708,156.400 201.361 C 152.497 200.244,148.633 199.125,147.306 198.729 C 146.594 198.516,145.908 198.175,145.782 197.971 C 145.656 197.767,145.298 197.600,144.986 197.600 C 144.447 197.600,140.299 195.705,138.599 194.682 C 133.901 191.856,132.426 190.923,131.400 190.132 C 130.740 189.623,129.768 188.890,129.241 188.504 C 124.194 184.802,112.894 171.907,112.170 169.023 C 112.029 168.460,111.760 168.000,111.574 168.000 C 111.132 168.000,107.200 159.824,107.200 158.906 C 107.200 158.663,106.940 157.955,106.621 157.332 C 105.739 155.607,104.790 152.505,104.193 149.400 C 103.897 147.860,103.470 145.870,103.243 144.978 C 103.016 144.085,102.779 140.082,102.715 136.080 L 102.600 128.805 68.933 128.803 C 50.416 128.801,34.981 128.691,34.633 128.557 C 33.710 128.203,33.831 126.508,34.800 126.200 C 35.240 126.060,35.600 125.700,35.600 125.400 C 35.600 125.100,35.960 124.740,36.400 124.600 C 36.840 124.460,37.200 124.192,37.200 124.005 C 37.200 123.560,40.760 120.000,41.205 120.000 C 41.392 120.000,41.660 119.640,41.800 119.200 C 41.940 118.760,42.300 118.400,42.600 118.400 C 42.900 118.400,43.260 118.040,43.400 117.600 C 43.540 117.160,43.814 116.800,44.009 116.800 C 44.487 116.800,46.224 115.036,46.529 114.240 C 46.664 113.888,47.051 113.600,47.387 113.600 C 47.724 113.600,48.000 113.330,48.000 113.000 C 48.000 112.670,48.153 112.400,48.341 112.400 C 48.810 112.400,51.200 110.079,51.200 109.623 C 51.200 109.420,51.560 109.140,52.000 109.000 C 52.440 108.860,52.800 108.595,52.800 108.410 C 52.800 107.972,57.972 102.800,58.410 102.800 C 58.595 102.800,58.860 102.440,59.000 102.000 C 59.140 101.560,59.420 101.200,59.623 101.200 C 60.079 101.200,62.400 98.810,62.400 98.341 C 62.400 98.153,62.670 98.000,63.000 98.000 C 63.330 98.000,63.600 97.724,63.600 97.387 C 63.600 97.051,63.888 96.664,64.240 96.529 C 65.036 96.224,66.800 94.487,66.800 94.009 C 66.800 93.814,67.160 93.540,67.600 93.400 C 68.040 93.260,68.400 92.900,68.400 92.600 C 68.400 92.300,68.760 91.940,69.200 91.800 C 69.640 91.660,70.000 91.392,70.000 91.205 C 70.000 91.017,70.824 90.039,71.832 89.032 C 72.839 88.024,73.817 87.200,74.005 87.200 C 74.192 87.200,74.460 86.840,74.600 86.400 C 74.740 85.960,75.100 85.600,75.400 85.600 C 75.700 85.600,76.060 85.240,76.200 84.800 C 76.340 84.360,76.614 84.000,76.809 84.000 C 77.287 84.000,79.024 82.236,79.329 81.440 C 79.464 81.088,79.851 80.800,80.187 80.800 C 80.524 80.800,80.800 80.524,80.800 80.187 C 80.800 79.851,81.088 79.464,81.440 79.329 C 82.236 79.024,84.000 77.287,84.000 76.809 C 84.000 76.614,84.360 76.340,84.800 76.200 C 85.240 76.060,85.600 75.700,85.600 75.400 C 85.600 75.100,85.960 74.740,86.400 74.600 C 86.840 74.460,87.200 74.192,87.200 74.005 C 87.200 73.560,90.760 70.000,91.205 70.000 C 91.392 70.000,91.660 69.640,91.800 69.200 C 91.940 68.760,92.300 68.400,92.600 68.400 C 92.900 68.400,93.260 68.040,93.400 67.600 C 93.540 67.160,93.814 66.800,94.009 66.800 C 94.487 66.800,96.224 65.036,96.529 64.240 C 96.664 63.888,97.051 63.600,97.387 63.600 C 97.724 63.600,98.000 63.330,98.000 63.000 C 98.000 62.670,98.153 62.400,98.341 62.400 C 98.810 62.400,101.200 60.079,101.200 59.623 C 101.200 59.420,101.560 59.140,102.000 59.000 C 102.440 58.860,102.800 58.595,102.800 58.410 C 102.800 57.972,107.972 52.800,108.410 52.800 C 108.595 52.800,108.860 52.440,109.000 52.000 C 109.140 51.560,109.420 51.200,109.623 51.200 C 110.079 51.200,112.400 48.810,112.400 48.341 C 112.400 48.153,112.670 48.000,113.000 48.000 C 113.330 48.000,113.600 47.724,113.600 47.387 C 113.600 47.051,113.888 46.664,114.240 46.529 C 115.036 46.224,116.800 44.487,116.800 44.009 C 116.800 43.814,117.160 43.540,117.600 43.400 C 118.040 43.260,118.400 42.900,118.400 42.600 C 118.400 42.300,118.760 41.940,119.200 41.800 C 119.640 41.660,120.000 41.392,120.000 41.205 C 120.000 40.760,123.560 37.200,124.005 37.200 C 124.192 37.200,124.460 36.840,124.600 36.400 C 124.740 35.960,125.100 35.600,125.400 35.600 C 125.700 35.600,126.060 35.240,126.200 34.800 C 126.340 34.360,126.614 34.000,126.809 34.000 C 127.287 34.000,129.024 32.236,129.329 31.440 C 129.464 31.088,129.851 30.800,130.187 30.800 C 130.524 30.800,130.800 30.524,130.800 30.187 C 130.800 29.851,131.088 29.464,131.440 29.329 C 132.236 29.024,134.000 27.287,134.000 26.809 C 134.000 26.614,134.360 26.340,134.800 26.200 C 135.240 26.060,135.600 25.703,135.600 25.406 C 135.600 25.110,135.825 24.776,136.100 24.665 C 137.143 24.244,344.438 24.392,345.226 24.814 M177.400 67.579 C 174.939 67.844,171.862 68.747,168.956 70.058 C 168.052 70.466,167.094 70.800,166.827 70.800 C 166.561 70.800,165.500 71.287,164.471 71.883 C 156.230 76.652,151.949 81.613,147.978 91.000 C 147.116 93.037,146.289 96.947,145.947 100.600 C 145.741 102.800,145.309 105.434,144.986 106.454 C 144.227 108.853,144.209 115.077,144.956 116.639 C 145.261 117.277,145.633 119.859,145.782 122.375 C 145.931 124.892,146.216 127.256,146.416 127.629 C 146.615 128.002,147.042 129.903,147.364 131.854 C 147.685 133.804,148.313 136.660,148.758 138.200 C 149.204 139.740,149.860 142.071,150.218 143.380 C 150.575 144.689,151.122 146.124,151.433 146.569 C 151.745 147.014,152.000 147.656,152.000 147.995 C 152.000 148.334,152.360 149.284,152.800 150.104 C 153.240 150.925,153.600 151.824,153.600 152.102 C 153.600 152.746,157.079 159.593,157.833 160.431 C 158.145 160.779,158.400 161.364,158.400 161.731 C 158.400 162.099,158.584 162.400,158.809 162.400 C 159.033 162.400,159.436 162.895,159.702 163.500 C 159.969 164.105,160.505 164.835,160.894 165.123 C 161.282 165.410,161.600 165.815,161.600 166.023 C 161.600 166.230,161.915 166.733,162.300 167.139 C 162.685 167.546,163.360 168.390,163.800 169.017 C 164.240 169.643,165.005 170.513,165.500 170.950 C 165.995 171.387,166.400 171.885,166.400 172.058 C 166.400 172.565,171.300 177.211,172.500 177.842 C 173.105 178.160,173.600 178.596,173.600 178.810 C 173.600 179.025,173.842 179.200,174.138 179.200 C 174.434 179.200,175.002 179.560,175.400 180.000 C 175.798 180.440,176.293 180.800,176.500 180.800 C 176.707 180.800,177.354 181.131,177.938 181.536 C 184.481 186.074,197.683 187.791,206.200 185.212 C 214.774 182.616,222.134 178.116,226.025 173.090 C 227.085 171.721,228.234 170.285,228.576 169.900 C 228.919 169.515,229.200 168.970,229.200 168.689 C 229.200 168.408,229.512 167.733,229.894 167.189 C 230.800 165.899,231.960 162.700,232.408 160.260 C 232.604 159.193,232.997 157.663,233.282 156.860 C 234.020 154.781,234.017 133.211,233.279 131.130 C 232.992 130.321,232.599 128.431,232.404 126.930 C 232.057 124.254,231.127 120.180,230.320 117.800 C 230.095 117.140,229.730 115.880,229.507 115.000 C 229.284 114.120,228.871 112.950,228.588 112.400 C 228.305 111.850,227.946 110.723,227.791 109.896 C 227.636 109.068,227.170 107.725,226.755 106.911 C 226.340 106.097,226.000 105.131,226.000 104.764 C 226.000 104.398,225.730 103.874,225.400 103.600 C 225.070 103.326,224.797 102.809,224.793 102.451 C 224.781 101.467,219.646 91.557,218.900 91.080 C 218.625 90.904,218.400 90.582,218.400 90.364 C 218.400 87.314,200.815 70.816,197.549 70.803 C 197.191 70.801,196.684 70.542,196.423 70.228 C 196.162 69.913,195.027 69.458,193.901 69.216 C 192.776 68.975,191.637 68.597,191.371 68.376 C 190.270 67.462,182.582 67.023,177.400 67.579 M192.400 261.555 C 189.430 261.690,186.807 261.926,186.571 262.080 C 186.335 262.234,184.085 262.563,181.571 262.811 C 179.057 263.059,176.190 263.503,175.200 263.797 C 174.210 264.091,172.410 264.447,171.200 264.589 C 169.990 264.731,168.190 265.101,167.200 265.413 C 166.210 265.725,164.050 266.360,162.400 266.824 C 160.750 267.289,158.734 268.013,157.921 268.434 C 157.107 268.855,156.153 269.200,155.800 269.200 C 155.447 269.200,154.493 269.538,153.679 269.951 C 152.866 270.365,151.300 271.111,150.200 271.610 C 148.132 272.549,147.943 272.647,145.600 274.000 C 143.701 275.096,142.640 275.760,142.400 276.001 C 142.290 276.112,141.181 276.976,139.935 277.922 C 135.820 281.049,130.149 287.026,128.762 289.700 C 128.334 290.525,127.844 291.200,127.672 291.200 C 127.501 291.200,127.133 291.830,126.854 292.600 C 126.576 293.370,126.180 294.000,125.974 294.000 C 125.768 294.000,125.600 294.315,125.600 294.700 C 125.600 295.085,125.249 296.480,124.821 297.800 C 122.131 306.084,122.141 315.554,124.849 323.641 C 125.262 324.874,125.600 326.195,125.600 326.578 C 125.600 326.961,125.960 327.731,126.400 328.291 C 126.840 328.850,127.200 329.622,127.200 330.005 C 127.200 330.388,127.463 330.920,127.785 331.187 C 128.106 331.454,128.484 332.034,128.624 332.476 C 128.764 332.917,129.176 333.600,129.539 333.992 C 129.903 334.384,130.560 335.202,131.000 335.810 C 132.035 337.241,139.552 344.759,140.988 345.800 C 141.594 346.240,142.381 346.915,142.734 347.300 C 143.088 347.685,143.551 348.000,143.763 348.000 C 143.975 348.000,144.520 348.343,144.974 348.761 C 146.286 349.971,154.581 354.400,155.534 354.400 C 155.737 354.400,156.114 354.656,156.374 354.969 C 156.634 355.282,157.545 355.656,158.400 355.800 C 159.255 355.944,160.150 356.298,160.389 356.587 C 160.628 356.875,161.788 357.231,162.967 357.379 C 164.146 357.526,165.446 357.900,165.855 358.210 C 166.265 358.521,167.371 358.780,168.313 358.787 C 169.255 358.794,171.055 359.140,172.313 359.555 C 173.571 359.970,175.950 360.420,177.600 360.554 C 179.250 360.688,182.490 361.008,184.800 361.267 C 190.306 361.883,203.248 361.885,207.800 361.271 C 209.780 361.005,212.660 360.683,214.200 360.557 C 215.740 360.430,217.952 359.984,219.115 359.564 C 220.278 359.144,221.905 358.800,222.730 358.800 C 223.556 358.800,224.937 358.440,225.800 358.000 C 226.663 357.560,227.781 357.200,228.285 357.200 C 228.788 357.200,229.200 357.034,229.200 356.831 C 229.200 356.628,229.875 356.245,230.700 355.980 C 231.525 355.716,232.470 355.266,232.800 354.981 C 233.130 354.696,233.888 354.341,234.484 354.192 C 235.080 354.043,235.777 353.669,236.033 353.361 C 236.289 353.052,236.733 352.800,237.020 352.800 C 237.308 352.800,237.782 352.575,238.074 352.300 C 238.366 352.025,239.253 351.350,240.045 350.800 C 248.011 345.265,253.436 338.047,256.430 329.000 C 257.492 325.790,258.060 311.654,257.261 308.314 C 255.334 300.262,250.545 292.347,243.647 285.817 C 239.649 282.031,239.614 282.000,239.348 282.000 C 239.210 282.000,238.434 281.415,237.623 280.700 C 236.813 279.985,235.468 278.860,234.634 278.200 C 233.801 277.540,232.897 276.792,232.626 276.538 C 232.355 276.284,230.528 274.869,228.567 273.393 C 226.605 271.918,224.730 270.461,224.400 270.157 C 223.331 269.172,221.460 267.763,218.600 265.789 C 217.060 264.726,215.710 263.744,215.600 263.606 C 213.892 261.475,207.194 260.883,192.400 261.555 " stroke="none" fill="#4484f4" fill-rule="evenodd"></path><path id="path2" d="M85.690 76.110 C 33.888 127.914,33.425 128.400,35.956 128.400 C 36.440 128.400,36.424 128.305,35.872 127.900 C 35.272 127.459,41.224 121.368,86.499 76.100 C 114.719 47.885,137.625 24.800,137.403 24.800 C 137.181 24.800,113.910 47.890,85.690 76.110 M343.980 25.242 C 344.918 25.617,344.570 26.023,335.880 34.720 C 330.886 39.717,326.800 43.934,326.800 44.090 C 326.800 44.247,330.940 40.227,336.000 35.157 C 341.060 30.087,345.200 25.792,345.200 25.612 C 345.200 25.247,344.185 24.786,343.467 24.825 C 343.210 24.839,343.441 25.027,343.980 25.242 M293.137 77.500 C 281.334 89.325,271.560 99.398,271.416 99.884 C 271.261 100.412,271.638 102.347,272.352 104.684 C 274.567 111.940,275.000 115.294,275.000 125.200 C 275.000 146.141,269.764 158.697,254.817 173.602 C 249.681 178.723,248.278 179.971,241.777 185.200 C 229.176 195.336,224.691 204.460,227.808 213.623 C 229.542 218.722,231.928 221.206,245.618 232.168 C 276.247 256.693,286.904 270.360,289.187 288.044 C 289.397 289.670,289.756 291.970,289.984 293.155 C 290.487 295.762,290.490 303.043,289.989 305.800 C 289.789 306.900,289.445 309.101,289.224 310.692 C 288.243 317.748,284.316 327.986,279.670 335.600 C 263.283 362.455,229.365 379.695,188.200 382.094 C 177.099 382.741,160.682 382.399,154.000 381.383 C 119.261 376.098,95.314 361.810,86.652 341.200 C 86.051 339.770,85.405 338.314,85.217 337.965 C 82.774 333.434,81.477 321.077,82.622 313.251 C 83.577 306.727,85.198 301.471,88.680 293.600 C 97.846 272.886,130.516 253.578,162.800 249.794 C 164.010 249.652,165.646 249.371,166.437 249.170 C 168.231 248.712,176.048 247.801,185.200 246.983 C 194.827 246.122,194.750 246.138,195.031 245.020 C 195.292 243.977,194.832 242.913,193.208 240.800 C 185.847 231.228,182.907 217.255,186.214 207.570 C 186.772 205.937,187.177 203.970,187.114 203.200 L 187.000 201.800 175.600 201.554 C 152.707 201.061,138.328 195.602,124.348 182.096 C 113.255 171.379,104.455 153.086,104.387 140.603 C 104.380 139.281,104.224 137.030,104.042 135.600 C 103.859 134.170,103.834 132.050,103.985 130.890 C 104.251 128.845,103.171 127.496,102.115 128.552 C 101.978 128.688,102.219 128.800,102.649 128.800 C 103.369 128.800,103.430 129.094,103.427 132.500 C 103.415 145.296,106.606 157.948,112.229 167.400 C 112.753 168.280,113.346 169.366,113.548 169.813 C 113.749 170.260,114.520 171.430,115.261 172.413 C 116.002 173.396,116.953 174.740,117.376 175.400 C 120.843 180.819,131.827 189.873,141.004 194.876 C 144.237 196.638,152.836 199.673,156.523 200.353 C 157.801 200.589,159.012 200.884,159.214 201.009 C 160.244 201.645,171.302 202.420,178.220 202.341 C 187.995 202.229,187.451 201.841,185.600 207.600 C 183.951 212.731,183.824 222.074,185.339 226.844 C 186.642 230.947,190.790 239.013,192.824 241.400 C 196.081 245.220,195.587 245.486,183.600 246.378 C 180.850 246.583,177.250 246.940,175.600 247.172 C 173.950 247.403,170.662 247.856,168.292 248.178 C 165.923 248.499,163.848 248.847,163.681 248.950 C 163.514 249.053,161.852 249.343,159.989 249.595 C 154.945 250.276,134.469 255.745,133.000 256.804 C 132.780 256.962,131.160 257.646,129.400 258.322 C 126.291 259.517,120.843 262.195,118.000 263.926 C 117.230 264.394,116.060 265.078,115.400 265.446 C 107.053 270.093,97.481 278.629,92.800 285.599 C 92.470 286.091,91.908 286.877,91.551 287.346 C 90.715 288.447,87.860 293.843,87.290 295.400 C 87.048 296.060,86.368 297.759,85.779 299.176 C 82.338 307.444,80.503 321.285,81.998 327.694 C 83.754 335.223,84.601 338.041,85.996 340.991 C 86.878 342.857,87.600 344.464,87.600 344.562 C 87.600 344.884,91.524 350.676,92.474 351.755 C 92.983 352.335,93.938 353.482,94.595 354.304 C 96.506 356.695,99.825 359.826,103.753 362.942 C 106.891 365.433,108.506 366.528,113.399 369.484 C 115.438 370.716,122.129 373.713,126.000 375.128 C 131.859 377.270,135.243 378.282,140.200 379.373 C 142.840 379.955,145.812 380.609,146.804 380.828 C 159.287 383.575,188.223 383.671,203.600 381.018 C 205.470 380.695,207.810 380.315,208.800 380.174 C 212.326 379.670,218.581 378.090,225.600 375.929 C 232.785 373.718,246.453 367.323,252.400 363.391 C 254.050 362.300,255.715 361.276,256.100 361.117 C 256.485 360.957,256.800 360.640,256.800 360.413 C 256.800 360.186,256.989 360.000,257.220 360.000 C 258.016 360.000,267.406 352.082,269.800 349.392 C 271.120 347.909,272.499 346.374,272.865 345.982 C 273.880 344.895,278.233 339.080,278.541 338.400 C 278.691 338.070,279.338 336.990,279.981 336.000 C 281.675 333.388,286.258 324.021,286.583 322.505 C 286.736 321.792,287.028 321.106,287.231 320.981 C 287.434 320.855,287.600 320.404,287.600 319.978 C 287.600 319.552,287.950 318.167,288.378 316.902 C 288.805 315.636,289.275 313.700,289.422 312.600 C 289.569 311.500,289.936 309.520,290.239 308.200 C 290.893 305.341,291.000 293.677,290.390 291.597 C 290.165 290.829,289.795 288.850,289.567 287.200 C 288.942 282.658,285.401 272.653,283.752 270.769 C 283.449 270.421,283.200 269.934,283.200 269.686 C 283.200 269.301,281.906 267.109,280.906 265.800 C 280.738 265.580,280.076 264.590,279.435 263.600 C 274.818 256.463,264.402 246.466,247.691 233.134 C 233.430 221.756,230.072 218.245,228.214 212.770 C 225.328 204.267,229.707 196.041,243.001 184.995 C 259.668 171.145,266.708 162.650,271.568 150.526 C 272.026 149.385,272.400 148.219,272.400 147.934 C 272.400 147.649,272.744 146.512,273.164 145.408 C 274.915 140.806,275.400 136.423,275.400 125.200 C 275.400 113.757,275.202 112.155,272.808 104.203 C 272.213 102.225,271.818 100.252,271.931 99.820 C 272.119 99.101,314.447 56.400,314.972 56.400 C 315.097 56.400,315.200 59.537,315.200 63.371 L 315.200 70.342 314.180 71.144 C 313.619 71.586,312.944 72.024,312.680 72.119 C 312.416 72.213,312.300 72.400,312.422 72.534 C 312.545 72.668,313.314 72.226,314.131 71.552 L 315.618 70.327 315.509 63.296 C 315.443 59.052,315.241 56.213,314.999 56.133 C 314.778 56.059,304.941 65.674,293.137 77.500 M175.520 66.623 C 157.340 70.394,146.050 83.019,143.975 101.897 C 143.739 104.044,143.383 106.520,143.183 107.400 C 142.696 109.542,142.706 114.051,143.201 116.123 C 143.421 117.045,143.859 119.960,144.173 122.600 C 147.967 154.457,164.679 180.321,185.604 186.719 C 202.900 192.006,225.041 182.426,232.028 166.631 C 237.351 154.596,236.383 126.596,230.144 112.140 C 229.845 111.446,229.600 110.679,229.600 110.433 C 229.600 108.772,224.581 97.699,221.698 93.000 C 208.887 72.118,192.941 63.010,175.520 66.623 M188.600 67.008 C 201.157 69.394,213.809 79.768,221.764 94.200 C 222.128 94.860,222.886 96.210,223.450 97.200 C 224.013 98.190,225.017 100.350,225.682 102.000 C 226.347 103.650,227.023 105.180,227.184 105.400 C 227.469 105.788,228.148 107.749,230.163 114.007 C 239.079 141.685,235.858 167.629,222.169 178.405 C 205.605 191.444,183.238 190.175,168.200 175.342 C 165.555 172.733,158.400 163.720,158.400 162.997 C 158.400 162.867,157.680 161.677,156.800 160.352 C 155.920 159.027,155.200 157.884,155.200 157.811 C 155.200 157.738,154.509 156.176,153.665 154.339 C 148.480 143.055,146.238 134.404,144.037 117.179 C 142.908 108.346,145.130 93.999,148.711 87.000 C 152.148 80.282,160.407 72.014,165.000 70.693 C 165.440 70.567,167.150 69.896,168.800 69.202 C 174.952 66.616,182.269 65.805,188.600 67.008 M328.800 71.000 C 329.545 71.550,330.274 72.000,330.420 72.000 C 330.565 72.000,331.194 72.806,331.817 73.792 C 332.440 74.778,333.033 75.501,333.134 75.399 C 333.497 75.036,331.109 72.045,329.646 71.032 C 327.734 69.707,327.010 69.679,328.800 71.000 M311.528 73.900 C 310.374 75.256,309.201 78.039,309.246 79.312 L 309.292 80.600 309.594 79.200 C 309.938 77.603,310.905 75.420,311.852 74.100 C 312.615 73.037,312.384 72.894,311.528 73.900 M333.219 76.000 C 333.215 76.110,333.471 76.920,333.788 77.800 C 334.675 80.261,334.686 185.741,333.800 187.862 C 332.995 189.788,333.041 190.402,333.900 189.189 C 334.614 188.180,335.269 85.014,334.597 79.345 C 334.410 77.769,333.254 74.962,333.219 76.000 M309.246 186.273 C 309.177 188.175,312.272 193.778,313.629 194.209 C 314.053 194.344,314.400 194.593,314.400 194.763 C 314.400 195.054,316.149 196.000,316.687 196.000 C 316.825 196.000,316.113 195.454,315.106 194.787 C 312.306 192.932,310.365 189.980,309.594 186.400 L 309.292 185.000 309.246 186.273 M332.029 191.454 C 331.573 192.034,331.200 192.629,331.200 192.777 C 331.200 193.268,327.782 195.464,325.898 196.184 C 324.000 196.909,319.589 196.919,317.800 196.203 C 317.128 195.933,317.083 195.971,317.520 196.441 C 318.426 197.415,324.988 197.195,327.263 196.116 C 329.609 195.001,334.251 190.400,333.029 190.400 C 332.935 190.400,332.485 190.874,332.029 191.454 M199.129 259.405 C 199.016 259.517,196.151 259.786,192.762 260.001 C 171.731 261.340,152.615 266.934,141.014 275.145 C 127.665 284.592,121.776 295.536,121.827 310.800 L 121.855 319.000 123.353 323.400 C 128.610 338.835,139.454 349.409,157.416 356.618 C 164.494 359.459,176.077 362.016,182.600 362.178 L 187.400 362.298 183.400 362.006 C 179.119 361.695,172.691 360.664,170.400 359.923 C 169.630 359.674,167.920 359.240,166.600 358.959 C 162.745 358.137,159.461 357.148,158.611 356.553 C 158.177 356.249,157.543 356.000,157.202 356.000 C 156.582 356.000,146.377 350.948,146.000 350.454 C 145.890 350.310,144.990 349.669,144.000 349.029 C 137.020 344.515,128.421 335.223,126.726 330.360 C 126.504 329.722,126.177 329.200,126.001 329.200 C 125.824 329.200,125.464 328.299,125.200 327.199 C 124.936 326.098,124.558 325.097,124.360 324.975 C 124.162 324.853,124.000 324.427,124.000 324.029 C 124.000 323.630,123.619 322.156,123.154 320.752 C 121.859 316.846,121.836 304.129,123.117 300.498 C 123.603 299.123,124.000 297.755,124.000 297.460 C 124.000 297.165,124.277 296.310,124.616 295.561 C 134.822 273.005,160.845 261.323,203.525 260.140 L 210.450 259.948 212.925 261.131 C 217.514 263.326,239.609 280.331,245.061 285.864 C 259.252 300.267,262.854 318.350,254.889 335.196 C 249.893 345.763,236.364 356.269,224.209 359.021 C 222.894 359.319,221.454 359.734,221.009 359.944 C 219.893 360.471,213.306 361.595,209.200 361.960 L 205.800 362.262 208.800 362.314 C 210.450 362.342,212.610 362.192,213.600 361.981 C 214.590 361.770,216.480 361.398,217.800 361.153 C 228.859 359.103,239.639 353.857,246.742 347.066 C 263.224 331.310,263.830 305.738,248.133 288.400 C 247.435 287.630,246.498 286.532,246.050 285.960 C 243.924 283.244,221.589 265.672,215.061 261.579 C 213.339 260.499,211.734 259.849,210.151 259.590 C 207.696 259.188,199.484 259.050,199.129 259.405 M189.000 362.800 C 189.660 362.968,193.170 363.105,196.800 363.105 C 200.430 363.105,203.940 362.968,204.600 362.800 C 205.260 362.632,201.750 362.495,196.800 362.495 C 191.850 362.495,188.340 362.632,189.000 362.800 " stroke="none" fill="#87b1f8" fill-rule="evenodd"></path><path id="path3" d="M136.100 24.665 C 135.825 24.776,135.600 25.110,135.600 25.406 C 135.600 25.703,135.240 26.060,134.800 26.200 C 134.360 26.340,134.000 26.614,134.000 26.809 C 134.000 27.287,132.236 29.024,131.440 29.329 C 131.088 29.464,130.800 29.851,130.800 30.187 C 130.800 30.524,130.524 30.800,130.187 30.800 C 129.851 30.800,129.464 31.088,129.329 31.440 C 129.024 32.236,127.287 34.000,126.809 34.000 C 126.614 34.000,126.340 34.360,126.200 34.800 C 126.060 35.240,125.700 35.600,125.400 35.600 C 125.100 35.600,124.740 35.960,124.600 36.400 C 124.460 36.840,124.192 37.200,124.005 37.200 C 123.560 37.200,120.000 40.760,120.000 41.205 C 120.000 41.392,119.640 41.660,119.200 41.800 C 118.760 41.940,118.400 42.300,118.400 42.600 C 118.400 42.900,118.040 43.260,117.600 43.400 C 117.160 43.540,116.800 43.814,116.800 44.009 C 116.800 44.487,115.036 46.224,114.240 46.529 C 113.888 46.664,113.600 47.051,113.600 47.387 C 113.600 47.724,113.330 48.000,113.000 48.000 C 112.670 48.000,112.400 48.153,112.400 48.341 C 112.400 48.810,110.079 51.200,109.623 51.200 C 109.420 51.200,109.140 51.560,109.000 52.000 C 108.860 52.440,108.595 52.800,108.410 52.800 C 107.972 52.800,102.800 57.972,102.800 58.410 C 102.800 58.595,102.440 58.860,102.000 59.000 C 101.560 59.140,101.200 59.420,101.200 59.623 C 101.200 60.079,98.810 62.400,98.341 62.400 C 98.153 62.400,98.000 62.670,98.000 63.000 C 98.000 63.330,97.724 63.600,97.387 63.600 C 97.051 63.600,96.664 63.888,96.529 64.240 C 96.224 65.036,94.487 66.800,94.009 66.800 C 93.814 66.800,93.540 67.160,93.400 67.600 C 93.260 68.040,92.900 68.400,92.600 68.400 C 92.300 68.400,91.940 68.760,91.800 69.200 C 91.660 69.640,91.392 70.000,91.205 70.000 C 90.760 70.000,87.200 73.560,87.200 74.005 C 87.200 74.192,86.840 74.460,86.400 74.600 C 85.960 74.740,85.600 75.100,85.600 75.400 C 85.600 75.700,85.240 76.060,84.800 76.200 C 84.360 76.340,84.000 76.614,84.000 76.809 C 84.000 77.287,82.236 79.024,81.440 79.329 C 81.088 79.464,80.800 79.851,80.800 80.187 C 80.800 80.524,80.524 80.800,80.187 80.800 C 79.851 80.800,79.464 81.088,79.329 81.440 C 79.024 82.236,77.287 84.000,76.809 84.000 C 76.614 84.000,76.340 84.360,76.200 84.800 C 76.060 85.240,75.700 85.600,75.400 85.600 C 75.100 85.600,74.740 85.960,74.600 86.400 C 74.460 86.840,74.192 87.200,74.005 87.200 C 73.817 87.200,72.839 88.024,71.832 89.032 C 70.824 90.039,70.000 91.017,70.000 91.205 C 70.000 91.392,69.640 91.660,69.200 91.800 C 68.760 91.940,68.400 92.300,68.400 92.600 C 68.400 92.900,68.040 93.260,67.600 93.400 C 67.160 93.540,66.800 93.814,66.800 94.009 C 66.800 94.487,65.036 96.224,64.240 96.529 C 63.888 96.664,63.600 97.051,63.600 97.387 C 63.600 97.724,63.330 98.000,63.000 98.000 C 62.670 98.000,62.400 98.153,62.400 98.341 C 62.400 98.810,60.079 101.200,59.623 101.200 C 59.420 101.200,59.140 101.560,59.000 102.000 C 58.860 102.440,58.595 102.800,58.410 102.800 C 57.972 102.800,52.800 107.972,52.800 108.410 C 52.800 108.595,52.440 108.860,52.000 109.000 C 51.560 109.140,51.200 109.420,51.200 109.623 C 51.200 110.079,48.810 112.400,48.341 112.400 C 48.153 112.400,48.000 112.670,48.000 113.000 C 48.000 113.330,47.724 113.600,47.387 113.600 C 47.051 113.600,46.664 113.888,46.529 114.240 C 46.224 115.036,44.487 116.800,44.009 116.800 C 43.814 116.800,43.540 117.160,43.400 117.600 C 43.260 118.040,42.900 118.400,42.600 118.400 C 42.300 118.400,41.940 118.760,41.800 119.200 C 41.660 119.640,41.392 120.000,41.205 120.000 C 40.760 120.000,37.200 123.560,37.200 124.005 C 37.200 124.192,36.840 124.460,36.400 124.600 C 35.960 124.740,35.600 125.100,35.600 125.400 C 35.600 125.700,35.240 126.060,34.800 126.200 C 33.648 126.566,33.721 128.317,34.900 128.602 C 35.395 128.722,50.740 128.770,69.000 128.708 L 102.200 128.595 68.780 128.498 C 43.060 128.423,35.247 128.287,34.870 127.910 C 34.484 127.524,45.217 116.583,85.690 76.110 L 136.999 24.800 240.467 24.800 C 297.374 24.800,344.219 24.909,344.567 25.043 C 345.646 25.457,345.443 25.696,336.000 35.157 L 326.800 44.375 326.894 56.287 L 326.987 68.200 327.100 56.493 L 327.212 44.786 336.606 35.423 C 346.322 25.740,346.514 25.503,345.226 24.814 C 344.438 24.392,137.143 24.244,136.100 24.665 M293.368 77.741 C 281.691 89.452,272.044 99.388,271.931 99.820 C 271.818 100.253,272.213 102.225,272.808 104.203 C 275.202 112.155,275.400 113.757,275.400 125.200 C 275.400 136.423,274.915 140.806,273.164 145.408 C 272.744 146.512,272.400 147.649,272.400 147.934 C 272.400 148.219,272.026 149.385,271.568 150.526 C 266.708 162.650,259.668 171.145,243.001 184.995 C 229.707 196.041,225.328 204.267,228.214 212.770 C 230.072 218.245,233.430 221.756,247.691 233.134 C 264.402 246.466,274.818 256.463,279.435 263.600 C 280.076 264.590,280.738 265.580,280.906 265.800 C 281.906 267.109,283.200 269.301,283.200 269.686 C 283.200 269.934,283.449 270.421,283.752 270.769 C 285.401 272.653,288.942 282.658,289.567 287.200 C 289.795 288.850,290.165 290.829,290.390 291.597 C 291.000 293.677,290.893 305.341,290.239 308.200 C 289.936 309.520,289.569 311.500,289.422 312.600 C 289.275 313.700,288.805 315.636,288.378 316.902 C 287.950 318.167,287.600 319.552,287.600 319.978 C 287.600 320.404,287.434 320.855,287.231 320.981 C 287.028 321.106,286.736 321.792,286.583 322.505 C 286.258 324.021,281.675 333.388,279.981 336.000 C 279.338 336.990,278.691 338.070,278.541 338.400 C 278.233 339.080,273.880 344.895,272.865 345.982 C 272.499 346.374,271.120 347.909,269.800 349.392 C 267.406 352.082,258.016 360.000,257.220 360.000 C 256.989 360.000,256.800 360.186,256.800 360.413 C 256.800 360.640,256.485 360.957,256.100 361.117 C 255.715 361.276,254.050 362.300,252.400 363.391 C 246.453 367.323,232.785 373.718,225.600 375.929 C 218.554 378.098,212.291 379.679,208.800 380.170 C 207.810 380.309,205.560 380.679,203.800 380.993 C 199.139 381.823,192.560 382.512,186.400 382.816 C 181.517 383.057,181.747 383.074,188.800 382.995 C 195.843 382.915,207.534 381.777,209.600 380.970 C 209.930 380.841,211.460 380.500,213.000 380.211 C 216.659 379.527,222.492 378.015,223.000 377.620 C 223.220 377.449,224.150 377.195,225.066 377.055 C 225.983 376.916,227.243 376.548,227.866 376.238 C 228.490 375.929,230.080 375.288,231.400 374.813 C 232.720 374.339,234.520 373.620,235.400 373.215 C 236.280 372.810,237.450 372.282,238.000 372.042 C 238.550 371.802,239.270 371.442,239.600 371.242 C 239.930 371.041,241.370 370.303,242.800 369.602 C 245.142 368.452,248.297 366.763,252.058 364.644 C 252.796 364.228,253.490 363.775,253.600 363.638 C 253.710 363.500,255.124 362.500,256.742 361.417 C 258.360 360.334,259.774 359.212,259.885 358.924 C 259.995 358.636,260.426 358.400,260.843 358.400 C 261.259 358.400,261.600 358.241,261.600 358.047 C 261.600 357.852,262.436 357.087,263.457 356.347 C 267.451 353.450,277.200 343.002,277.200 341.618 C 277.200 341.388,277.389 341.200,277.619 341.200 C 277.850 341.200,278.255 340.705,278.520 340.100 C 278.785 339.495,279.676 337.962,280.501 336.692 C 281.325 335.423,282.000 334.137,282.000 333.835 C 282.000 333.533,282.270 333.182,282.600 333.055 C 282.930 332.929,283.200 332.573,283.200 332.265 C 283.200 331.958,284.010 330.118,285.000 328.178 C 285.990 326.238,286.806 324.369,286.813 324.025 C 286.820 323.681,287.090 323.051,287.413 322.624 C 287.736 322.196,288.000 321.426,288.000 320.911 C 288.000 320.396,288.295 319.305,288.655 318.487 C 289.016 317.669,289.442 316.190,289.604 315.200 C 289.765 314.210,290.203 312.263,290.578 310.873 C 291.522 307.376,291.299 289.113,290.282 286.600 C 289.926 285.720,289.626 284.370,289.615 283.600 C 289.604 282.830,289.315 281.664,288.974 281.008 C 288.632 280.353,288.168 278.958,287.943 277.908 C 287.718 276.859,287.397 276.000,287.230 276.000 C 287.063 276.000,286.711 275.280,286.447 274.400 C 286.184 273.520,285.809 272.800,285.616 272.800 C 285.422 272.800,285.148 272.272,285.006 271.628 C 284.864 270.983,284.502 270.250,284.200 270.000 C 283.898 269.750,283.533 269.005,283.388 268.345 C 283.243 267.686,282.872 267.049,282.562 266.930 C 282.253 266.812,282.000 266.550,282.000 266.349 C 282.000 265.825,279.903 262.661,279.304 262.280 C 279.027 262.104,278.800 261.770,278.800 261.537 C 278.800 260.184,268.140 248.944,261.409 243.200 C 256.601 239.097,255.890 238.490,255.211 237.906 C 254.888 237.628,253.094 236.247,251.226 234.837 C 249.358 233.427,247.211 231.672,246.454 230.937 C 245.697 230.202,244.952 229.600,244.800 229.600 C 244.647 229.600,244.090 229.229,243.561 228.775 C 243.033 228.322,241.796 227.287,240.814 226.475 C 229.659 217.257,226.624 210.932,229.404 202.695 C 230.015 200.883,230.759 199.256,231.058 199.080 C 231.356 198.904,231.600 198.564,231.600 198.323 C 231.600 197.237,238.899 189.476,243.000 186.201 C 244.320 185.148,245.544 184.041,245.720 183.743 C 245.896 183.444,246.211 183.200,246.419 183.200 C 246.628 183.200,247.510 182.525,248.379 181.700 C 249.248 180.875,252.242 178.040,255.032 175.400 C 260.458 170.266,265.166 164.705,267.795 160.326 C 269.782 157.016,270.800 155.149,270.800 154.816 C 270.800 154.598,271.159 153.830,271.599 153.110 C 272.038 152.389,272.398 151.491,272.399 151.114 C 272.399 150.736,272.655 149.836,272.967 149.114 C 274.173 146.316,275.165 142.449,275.578 138.932 C 275.815 136.915,276.187 134.325,276.404 133.177 C 277.001 130.033,276.889 119.491,276.221 115.800 C 275.902 114.040,275.457 111.430,275.232 110.000 C 274.814 107.346,273.681 103.173,272.783 100.976 L 272.282 99.752 293.741 78.287 C 305.543 66.481,315.200 56.727,315.200 56.611 C 315.200 55.934,312.678 58.375,293.368 77.741 M175.200 67.211 C 173.330 67.612,170.450 68.509,168.800 69.202 C 167.150 69.896,165.440 70.567,165.000 70.693 C 160.407 72.014,152.148 80.282,148.711 87.000 C 145.130 93.999,142.908 108.346,144.037 117.179 C 146.238 134.404,148.480 143.055,153.665 154.339 C 154.509 156.176,155.200 157.738,155.200 157.811 C 155.200 157.884,155.920 159.027,156.800 160.352 C 157.680 161.677,158.400 162.867,158.400 162.997 C 158.400 163.720,165.555 172.733,168.200 175.342 C 183.238 190.175,205.605 191.444,222.169 178.405 C 235.858 167.629,239.079 141.685,230.163 114.007 C 228.148 107.749,227.469 105.788,227.184 105.400 C 227.023 105.180,226.347 103.650,225.682 102.000 C 225.017 100.350,224.013 98.190,223.450 97.200 C 222.886 96.210,222.128 94.860,221.764 94.200 C 210.673 74.080,192.434 63.508,175.200 67.211 M187.544 67.591 C 189.383 67.802,191.105 68.156,191.371 68.376 C 191.637 68.597,192.776 68.975,193.901 69.216 C 195.027 69.458,196.162 69.913,196.423 70.228 C 196.684 70.542,197.191 70.801,197.549 70.803 C 200.815 70.816,218.400 87.314,218.400 90.364 C 218.400 90.582,218.625 90.904,218.900 91.080 C 219.646 91.557,224.781 101.467,224.793 102.451 C 224.797 102.809,225.070 103.326,225.400 103.600 C 225.730 103.874,226.000 104.398,226.000 104.764 C 226.000 105.131,226.340 106.097,226.755 106.911 C 227.170 107.725,227.636 109.068,227.791 109.896 C 227.946 110.723,228.305 111.850,228.588 112.400 C 228.871 112.950,229.284 114.120,229.507 115.000 C 229.730 115.880,230.095 117.140,230.320 117.800 C 231.127 120.180,232.057 124.254,232.404 126.930 C 232.599 128.431,232.992 130.321,233.279 131.130 C 234.017 133.211,234.020 154.781,233.282 156.860 C 232.997 157.663,232.604 159.193,232.408 160.260 C 231.960 162.700,230.800 165.899,229.894 167.189 C 229.512 167.733,229.200 168.408,229.200 168.689 C 229.200 168.970,228.919 169.515,228.576 169.900 C 228.234 170.285,227.085 171.721,226.025 173.090 C 222.134 178.116,214.774 182.616,206.200 185.212 C 197.683 187.791,184.481 186.074,177.938 181.536 C 177.354 181.131,176.707 180.800,176.500 180.800 C 176.293 180.800,175.798 180.440,175.400 180.000 C 175.002 179.560,174.434 179.200,174.138 179.200 C 173.842 179.200,173.600 179.025,173.600 178.810 C 173.600 178.596,173.105 178.160,172.500 177.842 C 171.300 177.211,166.400 172.565,166.400 172.058 C 166.400 171.885,165.995 171.387,165.500 170.950 C 165.005 170.513,164.240 169.643,163.800 169.017 C 163.360 168.390,162.685 167.546,162.300 167.139 C 161.915 166.733,161.600 166.230,161.600 166.023 C 161.600 165.815,161.282 165.410,160.894 165.123 C 160.505 164.835,159.969 164.105,159.702 163.500 C 159.436 162.895,159.033 162.400,158.809 162.400 C 158.584 162.400,158.400 162.099,158.400 161.731 C 158.400 161.364,158.145 160.779,157.833 160.431 C 157.079 159.593,153.600 152.746,153.600 152.102 C 153.600 151.824,153.240 150.925,152.800 150.104 C 152.360 149.284,152.000 148.334,152.000 147.995 C 152.000 147.656,151.745 147.014,151.433 146.569 C 151.122 146.124,150.575 144.689,150.218 143.380 C 149.860 142.071,149.204 139.740,148.758 138.200 C 148.313 136.660,147.685 133.804,147.364 131.854 C 147.042 129.903,146.615 128.002,146.416 127.629 C 146.216 127.256,145.931 124.892,145.782 122.375 C 145.633 119.859,145.261 117.277,144.956 116.639 C 144.209 115.077,144.227 108.853,144.986 106.454 C 145.309 105.434,145.741 102.800,145.947 100.600 C 146.289 96.947,147.116 93.037,147.978 91.000 C 151.949 81.613,156.230 76.652,164.471 71.883 C 165.500 71.287,166.561 70.800,166.827 70.800 C 167.094 70.800,168.052 70.466,168.956 70.058 C 174.618 67.503,180.263 66.753,187.544 67.591 M327.200 69.370 C 327.200 69.669,327.625 70.020,328.146 70.151 C 329.538 70.500,332.154 73.213,333.458 75.659 L 334.600 77.800 334.600 132.800 L 334.600 187.800 333.660 189.708 C 330.043 197.055,319.285 199.742,314.129 194.586 C 313.807 194.264,313.393 194.000,313.211 194.000 C 312.856 194.000,311.600 192.083,310.114 189.273 L 309.200 187.546 309.200 132.806 L 309.200 78.066 310.194 76.087 C 310.741 74.999,311.461 73.882,311.794 73.605 C 312.127 73.328,312.400 72.866,312.400 72.578 C 312.400 72.290,312.736 71.947,313.147 71.817 C 314.021 71.540,315.425 70.091,315.118 69.784 C 314.802 69.469,312.000 72.065,312.000 72.674 C 312.000 72.963,311.733 73.200,311.408 73.200 C 311.082 73.200,310.702 73.650,310.564 74.200 C 310.426 74.750,310.182 75.200,310.021 75.200 C 308.858 75.200,308.800 77.927,308.800 133.097 L 308.800 188.957 309.899 190.578 C 310.503 191.470,311.223 192.344,311.499 192.520 C 311.774 192.696,312.000 193.106,312.000 193.432 C 312.000 193.758,312.315 194.143,312.700 194.286 C 313.085 194.430,313.635 194.874,313.923 195.274 C 314.210 195.673,314.795 196.000,315.223 196.000 C 315.650 196.000,316.000 196.151,316.000 196.336 C 316.000 197.616,324.811 198.164,326.800 197.007 C 327.350 196.687,328.295 196.222,328.900 195.973 C 329.505 195.725,330.000 195.269,330.000 194.961 C 330.000 194.652,330.230 194.400,330.511 194.400 C 331.037 194.400,333.200 192.158,333.200 191.613 C 333.200 191.445,333.605 190.793,334.100 190.164 L 335.000 189.020 335.000 132.800 L 335.000 76.580 334.100 75.436 C 333.605 74.807,333.200 74.046,333.200 73.746 C 333.200 73.446,332.951 73.200,332.647 73.200 C 332.342 73.200,331.996 72.827,331.876 72.370 C 331.757 71.914,331.286 71.443,330.830 71.324 C 330.373 71.204,330.000 70.965,330.000 70.793 C 330.000 70.620,329.370 70.107,328.600 69.653 C 327.560 69.039,327.200 68.966,327.200 69.370 M102.590 129.633 C 102.236 130.747,102.774 142.979,103.266 145.000 C 103.480 145.880,103.897 147.860,104.193 149.400 C 104.790 152.505,105.739 155.607,106.621 157.332 C 106.940 157.955,107.200 158.663,107.200 158.906 C 107.200 159.824,111.132 168.000,111.574 168.000 C 111.760 168.000,112.029 168.460,112.170 169.023 C 112.894 171.907,124.194 184.802,129.241 188.504 C 129.768 188.890,130.740 189.623,131.400 190.132 C 132.426 190.923,133.901 191.856,138.599 194.682 C 140.299 195.705,144.447 197.600,144.986 197.600 C 145.298 197.600,145.656 197.767,145.782 197.971 C 145.908 198.175,146.594 198.516,147.306 198.729 C 148.633 199.125,152.497 200.244,156.400 201.361 C 157.610 201.708,160.310 202.166,162.400 202.379 C 164.490 202.593,167.100 202.964,168.200 203.203 C 169.360 203.456,173.392 203.597,177.800 203.538 L 185.400 203.437 185.529 204.541 C 185.600 205.148,185.285 206.360,184.829 207.235 C 183.587 209.617,183.565 225.580,184.800 228.000 C 185.240 228.862,185.600 229.925,185.600 230.360 C 185.600 230.796,185.761 231.252,185.958 231.374 C 186.155 231.496,186.971 232.901,187.772 234.498 C 189.723 238.388,192.257 242.552,192.777 242.726 C 193.010 242.803,193.200 243.273,193.200 243.769 C 193.200 244.649,193.039 244.683,186.900 245.121 C 179.601 245.641,167.961 246.997,166.168 247.535 C 165.490 247.739,163.600 248.039,161.968 248.202 C 160.336 248.365,158.550 248.672,158.000 248.883 C 157.450 249.094,155.740 249.511,154.200 249.809 C 150.601 250.507,148.380 251.066,145.400 252.027 C 144.080 252.452,142.730 252.801,142.400 252.803 C 142.070 252.804,141.333 253.048,140.763 253.346 C 140.192 253.644,139.022 254.014,138.163 254.169 C 136.422 254.483,131.610 256.283,131.020 256.841 C 130.811 257.038,130.381 257.200,130.064 257.200 C 129.747 257.200,128.748 257.540,127.844 257.954 C 126.940 258.369,125.750 258.908,125.200 259.152 C 124.650 259.395,123.930 259.756,123.600 259.954 C 123.270 260.152,122.550 260.517,122.000 260.765 C 121.450 261.013,120.280 261.655,119.400 262.192 C 118.520 262.729,117.319 263.368,116.732 263.612 C 116.145 263.856,115.565 264.313,115.445 264.628 C 115.324 264.943,114.887 265.200,114.475 265.200 C 114.062 265.200,113.398 265.560,113.000 266.000 C 112.602 266.440,111.938 266.800,111.525 266.800 C 111.113 266.800,110.671 267.070,110.545 267.400 C 110.418 267.730,110.120 268.000,109.882 268.000 C 108.408 268.000,94.800 280.266,94.800 281.595 C 94.800 281.762,94.171 282.586,93.403 283.424 C 92.635 284.263,91.897 285.293,91.764 285.714 C 91.630 286.135,91.217 286.783,90.846 287.154 C 90.195 287.805,88.477 291.154,86.205 296.200 C 85.611 297.520,84.895 299.050,84.614 299.600 C 84.333 300.150,83.974 301.320,83.816 302.200 C 83.658 303.080,83.365 303.998,83.165 304.240 C 82.965 304.483,82.694 305.563,82.563 306.640 C 82.432 307.718,81.982 309.636,81.563 310.902 C 80.423 314.340,80.447 326.216,81.600 329.496 C 82.040 330.748,82.400 332.215,82.400 332.756 C 82.400 333.690,84.070 338.971,84.802 340.353 C 84.991 340.709,85.719 342.170,86.420 343.600 C 88.090 347.007,88.915 348.514,89.498 349.221 C 89.761 349.540,90.825 350.880,91.862 352.200 C 95.044 356.246,98.550 360.000,99.147 360.000 C 99.396 360.000,99.600 360.147,99.600 360.326 C 99.600 360.778,106.574 366.320,108.720 367.574 C 109.687 368.138,110.955 368.908,111.539 369.284 C 113.780 370.727,124.108 375.600,124.926 375.600 C 125.204 375.600,126.137 375.960,127.000 376.400 C 127.863 376.840,128.970 377.200,129.461 377.200 C 129.951 377.200,130.461 377.375,130.593 377.589 C 130.726 377.803,131.591 378.165,132.517 378.394 C 133.443 378.623,135.190 379.073,136.400 379.395 C 142.275 380.956,145.313 381.586,148.800 381.966 C 150.890 382.194,153.770 382.561,155.200 382.782 C 156.630 383.003,160.680 383.154,164.200 383.118 L 170.600 383.052 165.000 382.777 C 159.117 382.489,149.852 381.495,146.800 380.826 C 134.503 378.127,133.313 377.801,126.000 375.128 C 122.129 373.713,115.438 370.716,113.399 369.484 C 108.506 366.528,106.891 365.433,103.753 362.942 C 99.825 359.826,96.506 356.695,94.595 354.304 C 93.938 353.482,92.983 352.335,92.474 351.755 C 91.524 350.676,87.600 344.884,87.600 344.562 C 87.600 344.464,86.878 342.857,85.996 340.991 C 84.601 338.041,83.754 335.223,81.998 327.694 C 80.503 321.285,82.338 307.444,85.779 299.176 C 86.368 297.759,87.048 296.060,87.290 295.400 C 87.860 293.843,90.715 288.447,91.551 287.346 C 91.908 286.877,92.470 286.091,92.800 285.599 C 97.481 278.629,107.053 270.093,115.400 265.446 C 116.060 265.078,117.230 264.394,118.000 263.926 C 120.843 262.195,126.291 259.517,129.400 258.322 C 131.160 257.646,132.780 256.962,133.000 256.804 C 134.469 255.745,154.945 250.276,159.989 249.595 C 161.852 249.343,163.514 249.053,163.681 248.950 C 163.848 248.847,165.923 248.499,168.292 248.178 C 170.662 247.856,173.950 247.403,175.600 247.172 C 177.250 246.940,180.850 246.583,183.600 246.378 C 195.587 245.486,196.081 245.220,192.824 241.400 C 190.790 239.013,186.642 230.947,185.339 226.844 C 183.824 222.074,183.951 212.731,185.600 207.600 C 187.451 201.841,187.995 202.229,178.220 202.341 C 171.302 202.420,160.244 201.645,159.214 201.009 C 159.012 200.884,157.801 200.589,156.523 200.353 C 152.836 199.673,144.237 196.638,141.004 194.876 C 131.827 189.873,120.843 180.819,117.376 175.400 C 116.953 174.740,116.002 173.396,115.261 172.413 C 114.520 171.430,113.749 170.260,113.548 169.813 C 113.346 169.366,112.753 168.280,112.229 167.400 C 106.606 157.948,103.415 145.296,103.427 132.500 C 103.431 128.918,103.136 127.910,102.590 129.633 M196.400 260.400 C 195.850 260.576,194.050 260.738,192.400 260.760 C 176.263 260.971,153.712 267.397,142.384 275.011 C 134.143 280.550,124.000 292.935,124.000 297.460 C 124.000 297.755,123.603 299.123,123.117 300.498 C 121.836 304.129,121.859 316.846,123.154 320.752 C 123.619 322.156,124.000 323.630,124.000 324.029 C 124.000 324.427,124.162 324.853,124.360 324.975 C 124.558 325.097,124.936 326.098,125.200 327.199 C 125.464 328.299,125.824 329.200,126.001 329.200 C 126.177 329.200,126.504 329.722,126.726 330.360 C 128.421 335.223,137.020 344.515,144.000 349.029 C 144.990 349.669,145.890 350.310,146.000 350.454 C 146.377 350.948,156.582 356.000,157.202 356.000 C 157.543 356.000,158.177 356.249,158.611 356.553 C 159.461 357.148,162.745 358.137,166.600 358.959 C 167.920 359.240,169.630 359.674,170.400 359.923 C 180.202 363.095,214.301 363.109,221.009 359.944 C 221.454 359.734,222.894 359.319,224.209 359.021 C 236.364 356.269,249.893 345.763,254.889 335.196 C 262.854 318.350,259.252 300.267,245.061 285.864 C 239.685 280.407,217.570 263.367,213.000 261.160 C 210.520 259.962,199.362 259.451,196.400 260.400 M213.600 262.395 C 214.590 262.924,215.490 263.469,215.600 263.606 C 215.710 263.744,217.060 264.726,218.600 265.789 C 221.460 267.763,223.331 269.172,224.400 270.157 C 224.730 270.461,226.605 271.918,228.567 273.393 C 230.528 274.869,232.355 276.284,232.626 276.538 C 232.897 276.792,233.801 277.540,234.634 278.200 C 235.468 278.860,236.813 279.985,237.623 280.700 C 238.434 281.415,239.210 282.000,239.348 282.000 C 239.614 282.000,239.649 282.031,243.647 285.817 C 250.545 292.347,255.334 300.262,257.261 308.314 C 258.060 311.654,257.492 325.790,256.430 329.000 C 253.436 338.047,248.011 345.265,240.045 350.800 C 239.253 351.350,238.366 352.025,238.074 352.300 C 237.782 352.575,237.308 352.800,237.020 352.800 C 236.733 352.800,236.289 353.052,236.033 353.361 C 235.777 353.669,235.080 354.043,234.484 354.192 C 233.888 354.341,233.130 354.696,232.800 354.981 C 232.470 355.266,231.525 355.716,230.700 355.980 C 229.875 356.245,229.200 356.628,229.200 356.831 C 229.200 357.034,228.788 357.200,228.285 357.200 C 227.781 357.200,226.663 357.560,225.800 358.000 C 224.937 358.440,223.556 358.800,222.730 358.800 C 221.905 358.800,220.278 359.144,219.115 359.564 C 217.952 359.984,215.740 360.430,214.200 360.557 C 212.660 360.683,209.780 361.005,207.800 361.271 C 203.248 361.885,190.306 361.883,184.800 361.267 C 182.490 361.008,179.250 360.688,177.600 360.554 C 175.950 360.420,173.571 359.970,172.313 359.555 C 171.055 359.140,169.255 358.794,168.313 358.787 C 167.371 358.780,166.265 358.521,165.855 358.210 C 165.446 357.900,164.146 357.526,162.967 357.379 C 161.788 357.231,160.628 356.875,160.389 356.587 C 160.150 356.298,159.255 355.944,158.400 355.800 C 157.545 355.656,156.634 355.282,156.374 354.969 C 156.114 354.656,155.737 354.400,155.534 354.400 C 154.581 354.400,146.286 349.971,144.974 348.761 C 144.520 348.343,143.975 348.000,143.763 348.000 C 143.551 348.000,143.088 347.685,142.734 347.300 C 142.381 346.915,141.594 346.240,140.988 345.800 C 139.552 344.759,132.035 337.241,131.000 335.810 C 130.560 335.202,129.903 334.384,129.539 333.992 C 129.176 333.600,128.764 332.917,128.624 332.476 C 128.484 332.034,128.106 331.454,127.785 331.187 C 127.463 330.920,127.200 330.388,127.200 330.005 C 127.200 329.622,126.840 328.850,126.400 328.291 C 125.960 327.731,125.600 326.961,125.600 326.578 C 125.600 326.195,125.262 324.874,124.849 323.641 C 122.141 315.554,122.131 306.084,124.821 297.800 C 125.249 296.480,125.600 295.085,125.600 294.700 C 125.600 294.315,125.768 294.000,125.974 294.000 C 126.180 294.000,126.576 293.370,126.854 292.600 C 127.133 291.830,127.501 291.200,127.672 291.200 C 127.844 291.200,128.334 290.525,128.762 289.700 C 130.149 287.026,135.820 281.049,139.935 277.922 C 141.181 276.976,142.290 276.112,142.400 276.001 C 142.640 275.760,143.701 275.096,145.600 274.000 C 147.943 272.647,148.132 272.549,150.200 271.610 C 151.300 271.111,152.866 270.365,153.679 269.951 C 154.493 269.538,155.447 269.200,155.800 269.200 C 156.153 269.200,157.107 268.855,157.921 268.434 C 158.734 268.013,160.750 267.289,162.400 266.824 C 164.050 266.360,166.210 265.725,167.200 265.413 C 168.190 265.101,169.990 264.731,171.200 264.589 C 172.410 264.447,174.210 264.091,175.200 263.797 C 176.190 263.503,179.057 263.059,181.571 262.811 C 184.085 262.563,186.335 262.234,186.571 262.080 C 188.407 260.883,211.268 261.149,213.600 262.395 M173.516 383.497 C 174.899 383.575,177.059 383.574,178.316 383.495 C 179.572 383.416,178.440 383.352,175.800 383.353 C 173.160 383.353,172.132 383.418,173.516 383.497 " stroke="none" fill="#6198f4" fill-rule="evenodd"></path><path id="path4" d="M86.499 76.100 C 41.224 121.368,35.272 127.459,35.872 127.900 C 36.404 128.291,43.841 128.400,69.844 128.400 C 107.634 128.400,104.340 128.157,103.981 130.915 C 103.832 132.062,103.859 134.170,104.042 135.600 C 104.224 137.030,104.380 139.281,104.387 140.603 C 104.455 153.086,113.255 171.379,124.348 182.096 C 138.328 195.602,152.707 201.061,175.600 201.554 L 187.000 201.800 187.114 203.200 C 187.177 203.970,186.772 205.937,186.214 207.570 C 182.907 217.255,185.847 231.228,193.208 240.800 C 194.832 242.913,195.292 243.977,195.031 245.020 C 194.750 246.138,194.827 246.122,185.200 246.983 C 176.048 247.801,168.231 248.712,166.437 249.170 C 165.646 249.371,164.010 249.652,162.800 249.794 C 130.516 253.578,97.846 272.886,88.680 293.600 C 85.198 301.471,83.577 306.727,82.622 313.251 C 81.477 321.077,82.774 333.434,85.217 337.965 C 85.405 338.314,86.051 339.770,86.652 341.200 C 95.314 361.810,119.261 376.098,154.000 381.383 C 177.509 384.959,212.348 381.070,233.130 372.549 C 257.669 362.487,274.051 348.133,283.515 328.400 C 286.221 322.758,288.551 315.529,289.224 310.692 C 289.445 309.101,289.789 306.900,289.989 305.800 C 290.490 303.043,290.487 295.762,289.984 293.155 C 289.756 291.970,289.397 289.670,289.187 288.044 C 286.904 270.360,276.247 256.693,245.618 232.168 C 231.928 221.206,229.542 218.722,227.808 213.623 C 224.691 204.460,229.176 195.336,241.777 185.200 C 248.278 179.971,249.681 178.723,254.817 173.602 C 269.764 158.697,275.000 146.141,275.000 125.200 C 275.000 115.304,274.566 111.938,272.362 104.717 C 271.677 102.475,271.276 100.436,271.413 99.891 C 271.730 98.628,314.569 55.810,315.154 56.171 C 315.454 56.357,315.600 58.713,315.600 63.394 L 315.600 70.342 314.230 71.471 C 312.644 72.778,311.320 74.654,310.194 77.187 C 309.415 78.941,309.400 79.974,309.400 132.987 L 309.400 187.000 310.503 189.318 C 314.090 196.857,322.453 199.027,329.500 194.247 C 330.435 193.613,331.200 192.962,331.200 192.801 C 331.200 192.640,331.603 191.995,332.096 191.369 C 334.523 188.283,334.400 191.412,334.400 132.929 C 334.400 84.997,334.335 79.435,333.756 77.714 C 332.748 74.718,330.978 72.322,328.796 71.000 L 326.815 69.800 326.808 56.803 L 326.800 43.806 335.877 34.723 C 344.921 25.672,344.951 25.637,343.851 25.219 C 343.092 24.931,310.795 24.800,240.278 24.800 L 137.807 24.800 86.499 76.100 M343.363 25.441 C 343.823 25.618,341.642 28.025,335.195 34.458 L 326.400 43.235 326.400 56.827 L 326.400 70.420 327.300 70.773 C 328.126 71.097,330.082 72.855,331.629 74.664 C 331.976 75.069,332.651 76.619,333.129 78.108 L 334.000 80.817 333.995 132.908 C 333.990 183.834,333.972 185.057,333.192 187.546 C 331.587 192.666,328.583 195.159,322.660 196.286 C 321.158 196.571,316.896 195.290,315.469 194.124 C 314.847 193.616,314.196 193.200,314.022 193.200 C 313.476 193.200,311.464 189.894,310.615 187.600 C 309.643 184.977,309.295 80.347,310.254 79.161 C 310.503 78.853,310.842 77.970,311.006 77.200 C 311.169 76.430,311.730 75.291,312.252 74.669 C 312.773 74.047,313.200 73.390,313.200 73.209 C 313.200 73.027,313.830 72.507,314.600 72.053 L 316.000 71.227 316.000 63.462 C 316.000 57.271,315.886 55.603,315.436 55.230 C 314.977 54.849,310.762 58.877,292.636 77.019 C 268.225 101.453,269.673 99.691,270.963 103.387 C 273.080 109.447,273.404 111.079,274.487 121.133 C 276.299 137.965,269.473 156.892,256.804 170.166 C 250.544 176.725,249.760 177.456,243.966 182.117 C 236.360 188.236,230.369 194.304,229.073 197.200 C 228.926 197.530,228.630 198.070,228.416 198.400 C 226.150 201.896,225.215 209.464,226.588 213.200 C 226.951 214.190,227.416 215.549,227.621 216.220 C 228.407 218.796,235.029 225.382,242.200 230.720 C 244.400 232.357,246.290 233.813,246.400 233.955 C 246.661 234.291,248.792 235.983,250.235 237.000 C 251.394 237.817,253.487 239.610,258.796 244.334 C 266.243 250.960,277.946 263.130,279.532 265.898 C 279.900 266.538,280.860 268.219,281.667 269.631 C 282.474 271.044,283.706 273.550,284.404 275.200 C 285.102 276.850,285.934 278.806,286.253 279.547 C 291.786 292.413,289.417 316.281,281.108 331.386 C 280.499 332.494,279.736 333.940,279.413 334.600 C 277.093 339.339,267.059 350.603,260.600 355.717 C 253.430 361.394,250.598 363.255,245.179 365.853 C 244.201 366.322,241.960 367.432,240.200 368.320 C 236.185 370.344,227.430 373.894,224.000 374.888 C 222.570 375.303,220.140 376.010,218.600 376.461 C 214.195 377.750,209.343 378.801,205.000 379.406 C 202.800 379.713,200.370 380.159,199.600 380.397 C 198.830 380.636,194.600 380.932,190.200 381.056 C 185.474 381.189,181.276 381.510,179.942 381.841 C 177.078 382.550,174.521 382.550,171.658 381.840 C 170.362 381.519,166.161 381.183,161.800 381.052 C 157.234 380.915,153.322 380.595,152.000 380.250 C 150.790 379.935,148.456 379.555,146.812 379.405 C 145.169 379.256,143.527 378.975,143.164 378.780 C 142.800 378.586,141.354 378.168,139.951 377.852 C 136.081 376.981,132.741 376.022,131.340 375.379 C 130.646 375.060,129.827 374.800,129.518 374.800 C 128.856 374.800,117.719 370.057,115.400 368.788 C 114.520 368.306,113.080 367.480,112.200 366.953 C 111.320 366.425,110.105 365.775,109.500 365.509 C 108.895 365.243,108.400 364.909,108.400 364.767 C 108.400 364.625,107.635 363.989,106.700 363.354 C 100.365 359.051,93.490 352.108,91.323 347.824 C 90.982 347.151,90.482 346.330,90.211 346.000 C 89.645 345.310,88.329 342.838,87.443 340.800 C 81.493 327.109,81.679 312.585,87.998 297.600 C 88.694 295.950,89.367 294.240,89.493 293.800 C 89.619 293.360,90.054 292.522,90.461 291.938 C 90.867 291.354,91.200 290.784,91.200 290.672 C 91.200 288.916,100.539 278.276,105.791 274.047 C 114.528 267.012,125.682 260.948,135.800 257.733 C 137.560 257.174,140.260 256.305,141.800 255.802 C 143.340 255.299,145.950 254.580,147.600 254.205 C 149.250 253.830,151.860 253.191,153.400 252.784 C 160.948 250.793,173.211 249.090,190.800 247.591 C 197.093 247.054,197.911 245.322,194.186 240.424 C 191.563 236.975,188.287 230.975,187.178 227.586 C 185.919 223.740,185.707 211.367,186.854 208.586 C 189.905 201.181,189.205 200.437,179.445 200.719 C 154.406 201.442,133.138 192.478,119.369 175.400 C 116.298 171.591,110.778 161.987,109.799 158.752 C 109.641 158.228,109.293 157.260,109.026 156.600 C 107.917 153.856,106.816 150.002,106.405 147.429 C 106.163 145.919,105.797 144.367,105.589 143.980 C 105.382 143.593,105.112 139.989,104.989 135.972 C 104.866 131.954,104.672 128.517,104.559 128.334 C 104.446 128.150,89.198 127.997,70.676 127.994 C 52.154 127.991,36.781 127.849,36.513 127.678 C 36.190 127.473,53.168 110.229,87.117 76.285 L 138.207 25.200 240.471 25.200 C 296.716 25.200,343.017 25.308,343.363 25.441 M178.000 65.077 C 170.583 66.327,163.457 69.165,158.610 72.800 C 156.609 74.301,150.453 80.778,149.487 82.400 C 147.879 85.098,145.259 90.608,144.979 91.880 C 144.843 92.496,144.496 93.633,144.207 94.406 C 143.918 95.179,143.474 97.518,143.221 99.604 C 142.967 101.691,142.593 104.118,142.390 104.999 C 141.824 107.448,141.931 115.933,142.573 119.456 C 142.888 121.185,143.269 123.950,143.420 125.600 C 143.571 127.250,143.928 129.230,144.213 130.000 C 144.498 130.770,144.837 132.287,144.968 133.372 C 145.332 136.404,148.570 146.951,150.379 151.000 C 159.480 171.361,172.136 184.372,186.367 187.994 C 205.115 192.766,227.398 182.297,233.436 165.880 C 236.021 158.850,236.567 154.977,236.550 143.800 C 236.536 134.447,236.356 132.156,235.276 127.600 C 235.041 126.610,234.661 124.810,234.432 123.600 C 233.912 120.861,233.259 118.168,232.734 116.600 C 232.513 115.940,232.087 114.590,231.787 113.600 C 229.382 105.658,225.255 96.347,222.240 92.057 C 221.448 90.930,220.800 89.890,220.800 89.745 C 220.800 88.209,209.573 75.855,205.111 72.482 C 197.771 66.932,186.029 63.725,178.000 65.077 M188.658 66.445 C 201.630 68.970,212.137 77.415,221.698 93.000 C 224.581 97.699,229.600 108.772,229.600 110.433 C 229.600 110.679,229.845 111.446,230.144 112.140 C 236.383 126.596,237.351 154.596,232.028 166.631 C 225.041 182.426,202.900 192.006,185.604 186.719 C 164.679 180.321,147.967 154.457,144.173 122.600 C 143.859 119.960,143.421 117.045,143.201 116.123 C 142.706 114.051,142.696 109.542,143.183 107.400 C 143.383 106.520,143.739 104.044,143.975 101.897 C 146.571 78.280,166.841 62.198,188.658 66.445 M197.124 258.610 C 197.008 258.725,194.100 258.989,190.662 259.196 C 184.434 259.571,180.127 260.185,173.526 261.636 C 171.616 262.056,169.711 262.400,169.294 262.400 C 168.471 262.400,164.753 263.481,160.000 265.103 C 153.339 267.377,154.136 267.047,146.800 270.553 C 141.125 273.266,129.200 282.980,129.200 284.891 C 129.200 285.080,129.009 285.451,128.777 285.717 C 125.498 289.459,122.316 296.628,121.373 302.400 C 119.199 315.701,122.115 327.586,130.253 338.600 C 133.298 342.721,139.171 348.026,143.794 350.832 C 144.671 351.365,145.751 352.019,146.194 352.286 C 146.637 352.554,147.720 353.115,148.600 353.534 C 154.464 356.326,155.518 356.800,155.854 356.800 C 156.061 356.800,156.937 357.160,157.800 357.600 C 158.663 358.040,159.697 358.400,160.099 358.400 C 160.500 358.400,161.227 358.650,161.714 358.957 C 162.201 359.263,163.500 359.641,164.600 359.796 C 165.700 359.952,166.939 360.260,167.353 360.482 C 167.768 360.704,169.388 361.130,170.953 361.429 C 172.519 361.728,174.700 362.154,175.800 362.375 C 176.900 362.595,180.140 362.952,183.000 363.166 C 185.860 363.380,189.010 363.738,190.000 363.960 C 192.661 364.559,201.209 364.484,204.517 363.833 C 206.103 363.521,208.930 363.151,210.800 363.011 C 212.670 362.871,215.280 362.503,216.600 362.194 C 217.920 361.884,220.060 361.446,221.355 361.219 C 222.650 360.992,223.910 360.646,224.155 360.449 C 224.400 360.252,225.348 359.967,226.263 359.816 C 227.178 359.666,228.258 359.291,228.663 358.984 C 229.068 358.677,229.693 358.420,230.051 358.413 C 232.922 358.357,244.118 351.092,248.512 346.435 C 253.187 341.478,258.400 333.142,258.400 330.621 C 258.400 330.127,258.655 329.200,258.967 328.561 C 260.764 324.884,260.764 309.116,258.967 305.439 C 258.655 304.800,258.400 303.965,258.400 303.584 C 258.400 301.955,253.818 294.006,250.454 289.800 C 246.649 285.041,244.492 282.800,240.959 279.932 C 240.057 279.199,238.242 277.700,236.926 276.600 C 234.325 274.426,232.932 273.330,231.589 272.400 C 231.113 272.070,229.760 271.080,228.584 270.200 C 227.408 269.320,225.221 267.700,223.725 266.600 C 222.229 265.500,220.824 264.456,220.603 264.280 C 217.465 261.788,213.804 259.480,212.227 259.000 C 210.314 258.418,197.643 258.090,197.124 258.610 M210.151 259.590 C 211.734 259.849,213.339 260.499,215.061 261.579 C 221.589 265.672,243.924 283.244,246.050 285.960 C 246.498 286.532,247.435 287.630,248.133 288.400 C 262.371 304.127,263.389 326.829,250.571 342.800 C 243.283 351.882,230.115 359.293,218.200 361.019 C 217.100 361.179,215.752 361.476,215.204 361.681 C 212.068 362.853,194.664 363.298,183.800 362.485 C 175.572 361.869,164.200 359.341,157.416 356.618 C 139.454 349.409,128.610 338.835,123.353 323.400 L 121.855 319.000 121.827 310.800 C 121.776 295.536,127.665 284.592,141.014 275.145 C 152.615 266.934,171.731 261.340,192.762 260.001 C 196.151 259.786,199.016 259.517,199.129 259.405 C 199.484 259.050,207.696 259.188,210.151 259.590 " stroke="none" fill="#a4c4fc" fill-rule="evenodd"></path></g></svg>