<svg id="svg" version="1.1" width="400" height="325.2631578947368" viewBox="0 0 400 325.2631578947368" xmlns="http://www.w3.org/2000/svg" xmlns:xlink="http://www.w3.org/1999/xlink" ><g id="svgg"><path id="path0" d="M268.566 0.360 C 262.152 0.930,253.094 2.871,249.786 4.384 C 248.817 4.828,247.617 5.292,247.120 5.416 C 245.783 5.750,239.787 8.395,239.569 8.747 C 239.466 8.913,238.576 9.423,237.592 9.878 C 235.490 10.851,232.292 12.658,232.059 13.005 C 231.969 13.138,230.614 14.088,229.047 15.116 C 227.480 16.144,226.089 17.156,225.955 17.364 C 225.821 17.572,225.126 18.163,224.410 18.678 C 223.057 19.650,220.282 22.237,217.951 24.698 C 217.207 25.483,215.683 27.084,214.565 28.258 C 213.446 29.431,212.531 30.549,212.531 30.743 C 212.531 30.938,211.858 31.825,211.037 32.717 C 210.215 33.608,209.315 34.774,209.036 35.308 C 208.757 35.842,207.735 37.499,206.763 38.989 C 205.792 40.479,204.413 42.968,203.700 44.520 C 202.987 46.071,202.297 47.417,202.167 47.511 C 201.637 47.893,199.234 54.325,198.335 57.770 C 198.054 58.843,197.711 59.795,197.572 59.885 C 197.213 60.117,196.003 65.909,195.430 70.138 C 194.394 77.778,194.501 89.994,195.656 95.850 C 195.832 96.745,196.050 98.057,196.139 98.766 C 196.229 99.474,196.381 100.181,196.477 100.337 C 196.575 100.496,195.454 100.527,193.932 100.409 C 183.073 99.563,172.482 98.378,172.172 97.974 C 172.083 97.857,170.765 97.575,169.243 97.347 C 163.395 96.472,150.668 93.817,150.366 93.410 C 150.277 93.289,149.178 92.939,147.925 92.631 C 144.047 91.678,135.250 89.116,134.901 88.838 C 134.719 88.693,133.401 88.186,131.972 87.712 C 127.435 86.208,122.870 84.545,122.701 84.336 C 122.612 84.224,121.294 83.645,119.772 83.049 C 114.914 81.146,113.766 80.663,113.100 80.244 C 112.742 80.018,110.399 78.906,107.893 77.772 C 105.386 76.638,103.263 75.609,103.173 75.484 C 103.084 75.360,101.619 74.560,99.919 73.706 C 98.218 72.852,95.435 71.321,93.735 70.304 C 92.034 69.287,89.947 68.112,89.097 67.693 C 88.247 67.274,87.551 66.813,87.551 66.670 C 87.551 66.526,86.928 66.092,86.168 65.705 C 85.407 65.318,83.950 64.437,82.931 63.746 C 81.911 63.055,80.935 62.490,80.761 62.490 C 80.587 62.490,80.396 62.366,80.336 62.215 C 80.206 61.883,77.313 59.862,76.122 59.270 C 75.654 59.037,74.853 58.458,74.341 57.983 C 73.830 57.508,72.351 56.387,71.056 55.492 C 68.271 53.568,63.355 49.732,60.919 47.583 C 59.965 46.742,58.924 45.956,58.604 45.837 C 58.285 45.717,57.740 45.259,57.393 44.819 C 57.047 44.378,56.038 43.413,55.151 42.673 C 50.523 38.809,41.658 30.061,36.615 24.380 C 34.825 22.364,32.775 20.091,32.059 19.329 C 31.343 18.568,30.259 17.269,29.650 16.444 C 28.994 15.554,28.331 14.982,28.023 15.039 C 27.469 15.142,23.606 22.540,22.789 25.061 C 22.528 25.867,22.151 26.695,21.951 26.902 C 21.401 27.473,19.334 34.829,18.537 39.056 C 18.149 41.115,17.706 43.092,17.554 43.450 C 16.362 46.245,16.361 68.421,17.552 69.325 C 17.670 69.414,17.959 70.659,18.193 72.091 C 19.113 77.712,20.933 84.102,22.486 87.164 C 23.003 88.182,23.427 89.272,23.430 89.585 C 23.432 89.898,23.605 90.155,23.813 90.155 C 24.022 90.155,24.110 90.238,24.008 90.340 C 23.746 90.602,26.244 95.912,27.021 96.747 C 27.375 97.127,27.665 97.581,27.665 97.756 C 27.665 98.242,30.539 102.768,32.242 104.963 C 33.075 106.037,33.814 107.097,33.884 107.319 C 34.147 108.150,42.777 117.171,44.602 118.522 C 45.236 118.991,46.114 119.767,46.555 120.245 C 46.995 120.724,48.351 121.783,49.567 122.598 C 50.784 123.414,51.736 124.115,51.683 124.155 C 50.747 124.866,30.626 121.164,29.972 120.161 C 29.867 119.999,29.194 119.681,28.478 119.455 C 25.295 118.449,19.203 115.871,19.203 115.530 C 19.203 115.306,16.669 114.239,16.137 114.239 C 15.867 114.239,16.063 122.366,16.404 125.305 C 16.903 129.612,17.349 132.140,17.609 132.140 C 17.769 132.140,17.901 132.443,17.901 132.813 C 17.901 134.756,20.733 144.260,22.306 147.600 C 22.897 148.853,23.906 151.036,24.549 152.452 C 25.192 153.868,26.210 155.772,26.813 156.683 C 27.415 157.595,28.329 159.128,28.844 160.091 C 29.359 161.053,30.297 162.445,30.927 163.182 C 31.558 163.920,32.453 165.110,32.916 165.826 C 35.298 169.511,47.619 181.594,49.016 181.616 C 49.177 181.618,49.940 182.190,50.713 182.887 C 51.486 183.584,52.511 184.352,52.991 184.594 C 54.469 185.337,57.110 186.936,57.296 187.200 C 57.393 187.338,59.077 188.200,61.039 189.117 C 63.000 190.033,65.484 191.201,66.558 191.712 C 68.915 192.833,72.741 194.098,76.485 194.993 C 80.778 196.020,80.713 195.993,79.577 196.311 C 71.745 198.504,56.677 199.064,47.432 197.507 C 46.220 197.303,45.132 197.233,45.014 197.351 C 44.555 197.810,48.019 207.344,49.147 208.725 C 49.321 208.939,50.278 210.715,51.274 212.673 C 52.270 214.631,53.444 216.592,53.882 217.030 C 54.320 217.468,54.679 217.971,54.679 218.148 C 54.679 220.617,69.079 235.539,75.183 239.396 C 75.989 239.904,77.018 240.655,77.470 241.063 C 77.922 241.471,79.533 242.489,81.050 243.326 C 88.375 247.364,87.722 247.051,92.596 248.865 C 93.491 249.199,94.296 249.559,94.386 249.667 C 95.034 250.447,104.624 252.837,110.008 253.560 C 111.530 253.764,113.068 254.052,113.426 254.200 C 113.784 254.347,115.449 254.588,117.127 254.736 L 120.177 255.004 118.323 256.306 C 117.304 257.022,115.874 258.089,115.147 258.678 C 114.419 259.266,112.818 260.334,111.590 261.052 C 110.362 261.769,109.357 262.471,109.357 262.612 C 109.357 262.753,108.954 263.076,108.462 263.330 C 106.855 264.159,102.038 267.025,101.871 267.252 C 101.782 267.373,99.938 268.355,97.774 269.434 C 95.610 270.513,93.120 271.811,92.241 272.318 C 91.362 272.825,89.764 273.590,88.690 274.016 C 87.616 274.443,85.858 275.227,84.784 275.758 C 82.784 276.746,77.925 278.597,75.020 279.477 C 74.125 279.748,73.027 280.169,72.579 280.412 C 71.045 281.247,58.009 284.784,56.467 284.784 C 56.200 284.784,55.980 284.912,55.980 285.067 C 55.980 285.223,55.504 285.434,54.923 285.537 C 47.817 286.789,43.819 287.446,42.474 287.582 C 41.579 287.673,39.675 287.890,38.242 288.066 C 31.005 288.951,12.576 289.130,4.784 288.390 C 2.314 288.155,0.195 288.061,0.075 288.181 C -0.322 288.578,6.939 293.445,8.299 293.695 C 8.478 293.728,8.957 294.043,9.363 294.396 C 10.780 295.627,27.303 304.027,31.838 305.822 C 33.033 306.295,34.744 307.049,35.639 307.497 C 37.281 308.320,40.432 309.528,44.915 311.053 C 46.257 311.509,47.429 311.979,47.518 312.096 C 47.688 312.317,55.881 314.904,59.561 315.899 C 60.724 316.213,61.749 316.570,61.839 316.692 C 62.049 316.978,70.397 319.029,75.020 319.931 C 76.989 320.315,78.893 320.764,79.251 320.928 C 81.332 321.882,96.773 323.947,108.706 324.868 C 116.538 325.472,137.737 325.377,146.461 324.698 C 157.219 323.860,173.591 321.705,175.017 320.939 C 175.332 320.769,177.567 320.244,179.984 319.773 C 185.949 318.609,192.490 316.987,192.623 316.640 C 192.682 316.483,192.953 316.355,193.223 316.355 C 194.031 316.355,206.589 312.559,207.160 312.142 C 207.339 312.011,208.438 311.571,209.601 311.164 C 215.116 309.234,216.365 308.783,217.575 308.284 C 218.291 307.989,218.950 307.652,219.040 307.535 C 219.129 307.418,220.228 306.922,221.481 306.434 C 224.446 305.279,228.272 303.573,228.478 303.314 C 228.568 303.201,230.340 302.338,232.415 301.395 C 234.491 300.452,236.542 299.406,236.972 299.069 C 237.402 298.733,239.365 297.637,241.334 296.633 C 243.303 295.630,245.134 294.596,245.403 294.336 C 245.671 294.075,247.356 293.041,249.146 292.037 C 250.936 291.033,252.815 289.869,253.321 289.450 C 253.828 289.031,255.250 288.100,256.482 287.380 C 257.715 286.660,258.838 285.879,258.979 285.643 C 259.120 285.407,260.041 284.703,261.025 284.078 C 263.009 282.819,271.090 276.759,271.603 276.146 C 271.782 275.932,272.940 274.985,274.176 274.040 C 275.413 273.095,276.856 271.831,277.383 271.231 C 277.911 270.630,278.508 270.138,278.710 270.138 C 279.149 270.138,280.609 268.740,290.571 258.772 C 294.762 254.579,298.767 250.369,299.472 249.415 C 300.176 248.461,300.877 247.681,301.030 247.681 C 301.182 247.681,302.184 246.533,303.257 245.129 C 304.330 243.725,305.533 242.224,305.932 241.793 C 307.390 240.215,312.769 233.170,313.240 232.221 C 313.506 231.684,314.255 230.659,314.905 229.943 C 315.555 229.227,316.358 228.114,316.690 227.470 C 317.023 226.825,317.808 225.626,318.435 224.804 C 319.062 223.982,320.384 221.947,321.373 220.280 C 322.361 218.613,323.393 217.019,323.666 216.736 C 324.132 216.253,326.100 212.788,327.348 210.252 C 327.657 209.626,328.074 208.967,328.277 208.788 C 328.710 208.404,333.914 198.287,335.726 194.304 C 336.419 192.783,337.157 191.318,337.366 191.050 C 337.576 190.781,338.535 188.584,339.498 186.168 C 340.461 183.751,341.357 181.693,341.489 181.595 C 341.745 181.406,343.097 177.823,344.737 172.986 C 345.284 171.375,345.834 169.910,345.959 169.731 C 346.258 169.306,347.312 166.166,348.254 162.897 C 348.666 161.465,349.274 159.427,349.603 158.368 C 349.933 157.309,350.203 156.174,350.203 155.845 C 350.203 155.517,350.333 155.248,350.492 155.248 C 350.810 155.248,353.013 146.405,354.100 140.765 C 354.480 138.796,354.924 136.892,355.086 136.534 C 355.697 135.190,357.280 124.731,358.164 116.192 C 359.010 108.025,359.317 101.383,359.317 91.218 C 359.317 85.800,359.426 81.367,359.561 81.367 C 359.695 81.367,360.391 80.836,361.107 80.187 C 361.823 79.539,363.141 78.530,364.036 77.945 C 364.931 77.360,366.029 76.480,366.477 75.989 C 366.924 75.498,367.730 74.825,368.267 74.494 C 370.949 72.840,388.163 55.701,389.360 53.493 C 389.540 53.160,390.396 52.172,391.263 51.296 C 392.130 50.420,392.840 49.563,392.840 49.390 C 392.840 49.074,394.598 46.656,395.266 46.054 C 396.245 45.172,400.000 39.354,400.000 38.721 C 400.000 38.113,397.017 38.976,396.420 39.757 C 396.239 39.993,394.273 40.721,388.446 42.709 C 386.298 43.442,384.247 44.228,383.889 44.455 C 383.531 44.683,379.797 45.700,375.590 46.715 C 371.383 47.730,367.648 48.687,367.290 48.841 C 366.545 49.162,360.105 50.296,357.201 50.618 C 355.275 50.832,355.260 50.827,356.062 50.268 C 356.509 49.956,357.023 49.524,357.202 49.308 C 357.382 49.091,358.407 48.353,359.481 47.667 C 360.554 46.981,361.945 45.945,362.571 45.365 C 363.198 44.785,364.736 43.442,365.989 42.380 C 367.242 41.317,369.072 39.569,370.057 38.493 C 371.041 37.418,372.568 35.750,373.450 34.787 C 374.331 33.823,375.451 32.408,375.939 31.641 C 376.426 30.874,377.203 29.869,377.665 29.407 C 378.127 28.945,379.012 27.668,379.632 26.570 C 380.252 25.471,381.287 23.767,381.932 22.783 C 382.576 21.798,383.519 20.114,384.028 19.040 C 384.537 17.966,385.546 15.828,386.272 14.289 C 387.744 11.166,389.428 6.244,389.128 5.944 C 388.917 5.733,384.205 8.030,383.593 8.642 C 382.964 9.271,373.340 13.967,369.894 15.327 C 368.104 16.033,366.054 16.898,365.338 17.248 C 363.930 17.937,359.787 19.529,358.988 19.688 C 357.864 19.912,351.643 21.909,351.343 22.143 C 351.164 22.282,349.186 22.845,346.949 23.393 C 343.504 24.237,341.675 24.652,337.456 25.549 C 337.125 25.619,336.200 24.917,335.086 23.749 C 332.203 20.726,324.417 14.321,323.626 14.321 C 323.451 14.321,322.768 13.845,322.109 13.263 C 321.450 12.681,319.487 11.473,317.747 10.578 C 316.008 9.683,314.423 8.804,314.225 8.625 C 313.515 7.982,306.488 5.101,304.719 4.728 C 304.138 4.605,303.662 4.389,303.662 4.248 C 303.662 3.472,291.352 0.921,284.784 0.336 C 280.496 -0.046,273.007 -0.035,268.566 0.360 " stroke="none" fill="#54acec" fill-rule="evenodd"></path><path id="path1" d="" stroke="none" fill="#58acec" fill-rule="evenodd"></path><path id="path2" d="" stroke="none" fill="#58acec" fill-rule="evenodd"></path><path id="path3" d="" stroke="none" fill="#58acec" fill-rule="evenodd"></path><path id="path4" d="" stroke="none" fill="#58acec" fill-rule="evenodd"></path></g></svg>